<svg width="181" height="193" viewBox="0 0 181 193" fill="none" xmlns="http://www.w3.org/2000/svg">
<g clip-path="url(#clip0_478_43861)">
<path d="M107.25 0C107.25 0 141.71 20.47 124.71 58.91C122.31 64.34 117.16 71.24 111.49 77.07C111.84 77.49 112.18 77.91 112.49 78.34C118.154 72.7517 122.902 66.306 126.56 59.24C131.45 49.46 133.1 39.45 131.14 29.96C134.22 40.74 132.69 52.28 127.05 63.56C123.762 69.9958 119.58 75.9345 114.63 81.2C114.97 81.7 115.3 82.2 115.63 82.71C121.015 77.1343 125.55 70.7964 129.09 63.9C134.32 53.46 136.09 42.75 133.98 32.6C137.28 44.13 135.64 56.47 129.61 68.53C126.361 74.8912 122.282 80.7928 117.48 86.08C117.79 86.7 118.07 87.32 118.33 87.96C123.675 82.2613 128.195 75.8423 131.76 68.89C137.35 57.73 139.24 46.27 137 35.41C140.52 47.74 138.77 60.95 132.32 73.84C128.944 80.4669 124.718 86.6254 119.75 92.16C119.96 92.96 120.14 93.78 120.27 94.6C125.983 88.5146 130.813 81.6578 134.62 74.23C140.62 62.23 142.62 50.04 140.22 38.42C143.99 51.61 142.11 65.73 135.22 79.52C131.335 87.1119 126.426 94.1342 120.63 100.39C120.579 101.57 120.456 102.745 120.26 103.91C127.254 96.8452 133.125 88.7514 137.67 79.91C144.07 67.13 146.22 54.05 143.67 41.62C147.67 55.73 145.67 70.82 138.33 85.57C133.42 95.38 126.11 105.03 116.64 114.13L116.37 114.37C116.912 114.456 117.461 114.493 118.01 114.48H118.2C118.59 114.48 119.05 114.48 119.57 114.41C128.233 106.208 135.46 96.6114 140.95 86.02C147.79 72.35 150.1 58.35 147.35 45.07C151.66 60.15 149.45 76.26 141.64 92.07C137.832 99.5381 133.131 106.516 127.64 112.85C127.64 112.85 130.64 111.94 132.15 111.34C136.894 105.537 141.001 99.2408 144.4 92.56C151.75 78 154.22 63 151.28 48.77C155.89 64.9 153.69 82 145.17 99C143.82 101.71 140.57 107.18 140.57 107.18C140.57 107.18 144.51 104.54 146.38 102.91C147 101.78 147.6 100.65 148.17 99.52C162 72 159.68 43.24 137.94 19.91C122.73 3.6 111.06 0.51 107.25 0Z" fill="#6C3078"/>
<path d="M70.81 70.38C62.399 70.2646 54.0117 71.2975 45.88 73.45L44.37 73.89C46.5033 71.1052 48.991 68.6108 51.77 66.47C64.37 56.62 84 47.47 108.71 42.62C112.94 41.79 121.39 40.56 121.39 40.56L120.28 39.83C116.28 40.37 112.28 41.03 108.28 41.83C83.18 46.73 62.93 55.67 50.38 66.06C41 73.86 38 81.44 37.13 84.83C38.21 77.42 43.22 70 51.4 63.17C64.54 52.17 85.87 42.85 112.3 37.67C113.4 37.45 114.51 37.25 115.61 37.06C115.16 36.82 114.72 36.58 114.26 36.35C113.45 36.5 112.63 36.64 111.82 36.8C85 42.06 63.3 51.58 49.92 62.73C42.33 69.05 37.41 75.9 35.76 82.8C36.91 74.87 42.32 67 51 59.63C72.69 41.27 109 33.9 109 33.9L107.34 33.23C82.48 39.09 62.34 48.42 49.45 59.17C41.33 65.93 36.07 73.26 34.3 80.63C35.54 72.16 41.3 63.69 50.62 55.86C70.48 39.21 101.39 31.23 101.39 31.23C101.39 31.23 100.03 30.83 99.33 30.65C78 36.88 60.65 45.57 48.9 55.36C40.22 62.59 34.6 70.43 32.7 78.36C34 69.25 40.23 60.08 50.15 51.83C65.9 38.74 92.65 29.22 92.65 29.22C92.65 29.22 90.93 28.94 90.06 28.83C72.81 35 58.58 42.76 48.34 51.29C39.06 59 33 67.4 31 75.83C32.41 66.14 39.18 56.17 49.65 47.51C63.47 36.08 82.65 28.17 82.65 28.17C82.65 28.17 80.45 28.1 79.34 28.1C66.67 33.66 56 40.06 47.73 46.93C37.81 55.21 31.38 64.17 29.21 73.19C30.72 62.82 37.98 52.19 49.21 42.89C56.0355 37.3585 63.4069 32.5369 71.21 28.5C71.21 28.5 69.29 28.68 68.3 28.83L66.86 29C59.8636 32.7894 53.2438 37.2361 47.09 42.28C36.47 51.12 29.59 60.71 27.28 70.36C28.89 59.27 36.2 48.36 48.62 37.95C51.46 35.58 57.9 31 57.9 31C57.9 31 53.76 32.25 51.67 33.17C49.84 34.55 48.11 36 46.4 37.3C31.58 48.91 24.06 63 24 75.8V76.18C24.08 89.51 32.21 101.49 48.56 108.03C56.7378 98.579 67.3853 91.5914 79.31 87.85C91.2921 84.268 104.204 85.5581 115.24 91.44C115.24 91.44 112.28 70.8 70.81 70.38ZM40.17 81.64C44.0182 79.904 47.989 78.4534 52.05 77.3C64.4755 73.6674 77.626 73.2886 90.24 76.2C79.1753 74.1983 67.7971 74.7905 57 77.93C50.8566 79.7075 44.925 82.1486 39.31 85.21C39.5018 84.0014 39.7928 82.8108 40.18 81.65L40.17 81.64ZM46.34 75.09C59.6347 71.2047 73.7048 70.8018 87.2 73.92C75.3533 71.7753 63.1705 72.4086 51.61 75.77C47.9947 76.7974 44.4505 78.0601 41 79.55C41.39 78.65 42.33 76.99 42.79 76.2C44 75.81 45.14 75.43 46.34 75.09ZM39.08 87.09C44.8706 83.8301 51.0135 81.2401 57.39 79.37C69.0106 75.9794 81.3079 75.6351 93.1 78.37C82.7464 76.5064 72.102 77.0643 62 80C53.8791 82.3179 46.1744 85.9019 39.17 90.62C39.0357 89.455 39.0056 88.2803 39.08 87.11V87.09ZM39.39 92.09C46.4144 87.2422 54.1833 83.5739 62.39 81.23C73.2532 78.0372 84.7552 77.6928 95.79 80.23C86.1071 78.4764 76.1493 78.9933 66.7 81.74C57.0843 84.5103 48.112 89.1562 40.3 95.41C39.9156 94.3177 39.6147 93.1978 39.4 92.06L39.39 92.09ZM40.77 96.73C48.5349 90.4819 57.4697 85.8479 67.05 83.1C77.2112 80.131 87.9646 79.8211 98.28 82.2C89.2254 80.566 79.9153 81.0521 71.08 83.62C60.351 86.7362 50.4944 92.3064 42.29 99.89C41.7206 98.897 41.2162 97.8682 40.78 96.81L40.77 96.73ZM42.93 101C51.0201 93.4371 60.7764 87.8841 71.41 84.79C80.9102 82.0124 90.9643 81.7198 100.61 83.94C92.1479 82.4109 83.4464 82.8662 75.19 85.27C63.6236 88.6513 53.1656 95.0504 44.89 103.81C44.16 102.81 43.52 101.92 42.89 100.99L42.93 101ZM79 86.82C66.816 90.4076 55.9734 97.5362 47.85 107.3C47.04 106.44 46.29 105.58 45.61 104.74C53.7556 96.0591 64.0759 89.7163 75.5 86.37C84.3853 83.7734 93.7879 83.4979 102.81 85.57C94.8831 84.146 86.7343 84.5738 79 86.82Z" fill="#6C3078"/>
<path d="M43.6002 175.23H37.7002L31.7002 161.17H13.8002L7.80016 175.23H1.91016L22.7202 127.5L43.6002 175.23ZM15.4002 156.48H30.0502L22.7202 139.58L15.4002 156.48Z" fill="#6C3078"/>
<path d="M48.3501 129.31H72.5701V134.31H53.8201V147.48H72.5701V152.56H53.8201V170.16H72.5701V175.23H48.3501V129.31Z" fill="#6C3078"/>
<path d="M88.9498 144.02L83.1698 175.23H77.8398L87.1498 127.5L103.22 165.47L119.27 127.5L128.59 175.23H123.25L117.41 144.02L103.22 177.03L88.9498 144.02Z" fill="#6C3078"/>
<path d="M171.81 169.39C167.161 173.922 160.927 176.458 154.435 176.458C147.943 176.458 141.708 173.922 137.06 169.39C134.784 167.171 132.975 164.519 131.74 161.589C130.505 158.66 129.869 155.514 129.869 152.335C129.869 149.156 130.505 146.01 131.74 143.08C132.975 140.151 134.784 137.499 137.06 135.28C141.729 130.788 147.956 128.279 154.435 128.279C160.914 128.279 167.141 130.788 171.81 135.28C174.071 137.507 175.867 140.162 177.093 143.09C178.318 146.018 178.949 149.161 178.949 152.335C178.949 155.509 178.318 158.652 177.093 161.58C175.867 164.507 174.071 167.162 171.81 169.39ZM167.7 165.73C169.47 163.985 170.871 161.903 171.821 159.606C172.771 157.309 173.25 154.845 173.23 152.36C173.252 149.858 172.774 147.377 171.825 145.062C170.875 142.747 169.473 140.646 167.7 138.88C165.957 137.128 163.886 135.737 161.604 134.789C159.323 133.84 156.876 133.351 154.405 133.351C151.934 133.351 149.487 133.84 147.205 134.789C144.924 135.737 142.852 137.128 141.11 138.88C139.344 140.65 137.947 142.753 136.999 145.067C136.051 147.381 135.572 149.86 135.59 152.36C135.573 154.844 136.053 157.306 137.001 159.602C137.949 161.898 139.346 163.981 141.11 165.73C142.843 167.499 144.911 168.905 147.194 169.864C149.477 170.824 151.928 171.318 154.405 171.318C156.881 171.318 159.333 170.824 161.616 169.864C163.899 168.905 165.967 167.499 167.7 165.73Z" fill="#6C3078"/>
<path d="M6.1 192.53H5.23L4.36 190.46H1.74L0.87 192.53H0L3.05 185.53L6.1 192.53ZM2 189.78H4.12L3.05 187.31L2 189.78Z" fill="#6C3078"/>
<path d="M7.53022 185.8V190C7.53022 191.34 8.08021 192 9.33021 192C10.5802 192 11.1202 191.37 11.1202 190V185.8H11.9302V190C11.9302 191.81 11.0702 192.71 9.33021 192.71C7.59021 192.71 6.72021 191.81 6.72021 190V185.8H7.53022Z" fill="#6C3078"/>
<path d="M17.4098 190.64C17.4176 190.92 17.3665 191.198 17.2598 191.457C17.1532 191.716 16.9934 191.95 16.7907 192.143C16.588 192.336 16.347 192.485 16.0833 192.579C15.8196 192.673 15.539 192.711 15.2598 192.69C14.7974 192.701 14.3455 192.552 13.9808 192.268C13.6162 191.983 13.3614 191.581 13.2598 191.13L13.9798 190.78C14.1698 191.59 14.6398 192.01 15.3098 192.01C15.4825 192.025 15.6565 192.004 15.8205 191.948C15.9846 191.892 16.1351 191.803 16.2623 191.685C16.3895 191.567 16.4906 191.424 16.5591 191.265C16.6276 191.105 16.6618 190.933 16.6598 190.76C16.6533 190.46 16.5534 190.17 16.3742 189.93C16.1949 189.69 15.9452 189.512 15.6598 189.42L14.8398 189.07C14.457 188.959 14.121 188.726 13.8827 188.407C13.6445 188.087 13.517 187.699 13.5198 187.3C13.5282 187.065 13.5847 186.834 13.6857 186.622C13.7868 186.41 13.9304 186.22 14.1075 186.066C14.2846 185.911 14.4916 185.794 14.7156 185.723C14.9395 185.651 15.1758 185.627 15.4098 185.65C15.7663 185.625 16.1222 185.707 16.4321 185.885C16.7419 186.063 16.9918 186.329 17.1498 186.65L16.4898 187.07C16.3918 186.847 16.2327 186.657 16.031 186.52C15.8292 186.384 15.5931 186.308 15.3498 186.3C15.0845 186.3 14.8302 186.405 14.6427 186.593C14.4551 186.78 14.3498 187.035 14.3498 187.3C14.3498 187.78 14.6398 188.12 15.2498 188.38L16.2498 188.8C16.6381 188.928 16.9755 189.176 17.2129 189.509C17.4503 189.841 17.5753 190.241 17.5698 190.65" fill="#6C3078"/>
<path d="M19.7799 186.56H17.8799V185.81H22.4799V186.56H20.5899V192.53H19.7799V186.56Z" fill="#6C3078"/>
<path d="M23.5 185.81H25.08C25.616 185.74 26.1599 185.856 26.62 186.14C26.8318 186.326 26.9986 186.558 27.1077 186.818C27.2168 187.077 27.2655 187.359 27.25 187.64C27.25 188.74 26.62 189.32 25.44 189.32H25.3L27.86 192.53H26.86L24.4 189.32H24.29V192.53H23.5V185.81ZM24.28 188.73H24.89C25.95 188.73 26.46 188.58 26.46 187.65C26.46 186.72 25.95 186.48 24.89 186.48H24.28V188.73Z" fill="#6C3078"/>
<path d="M33.8402 192.53H33.0002L32.1302 190.46H29.4802L28.6002 192.53H27.7402L30.7402 185.53L33.8402 192.53ZM29.7102 189.78H31.8502L30.7802 187.31L29.7102 189.78Z" fill="#6C3078"/>
<path d="M34.6602 185.8H35.4602V191.76H38.0002V192.53H34.6602V185.8Z" fill="#6C3078"/>
<path d="M39.8898 185.8H39.0898V192.52H39.8898V185.8Z" fill="#6C3078"/>
<path d="M46.8202 192.53H46.0002L45.1202 190.46H42.4602L41.5902 192.53H40.7202L43.7202 185.53L46.8202 192.53ZM42.6902 189.78H44.8402L43.7602 187.31L42.6902 189.78Z" fill="#6C3078"/>
<path d="M47.6499 185.54L52.5599 190.91V185.81H53.3199V192.79L48.4099 187.48V192.53H47.6499V185.54Z" fill="#6C3078"/>
<path d="M57.96 185.8H61.5V186.54H58.76V188.46H61.5V189.21H58.76V191.78H61.5V192.53H57.96V185.8Z" fill="#6C3078"/>
<path d="M62.9902 185.54L67.9002 190.91V185.81H68.6602V192.79L63.7502 187.48V192.53H62.9902V185.54Z" fill="#6C3078"/>
<path d="M70.3999 185.8H73.9399V186.54H71.1999V188.46H73.9399V189.21H71.1999V191.78H73.9399V192.53H70.3999V185.8Z" fill="#6C3078"/>
<path d="M75.4199 185.81H76.9999C77.5391 185.741 78.0858 185.857 78.5499 186.14C78.7594 186.328 78.9246 186.56 79.0336 186.819C79.1425 187.079 79.1925 187.359 79.1799 187.64C79.1799 188.74 78.5499 189.32 77.3599 189.32H77.2199L79.7899 192.53H78.7899L76.3399 189.32H76.1999V192.53H75.4199V185.81ZM76.1999 188.73H76.8199C77.8699 188.73 78.3799 188.58 78.3799 187.65C78.3799 186.72 77.8799 186.48 76.8199 186.48H76.1999V188.73Z" fill="#6C3078"/>
<path d="M87.05 189.06V189.28C87.092 189.734 87.0344 190.193 86.8812 190.622C86.7281 191.052 86.483 191.444 86.1632 191.769C85.8434 192.095 85.4564 192.347 85.0293 192.507C84.6022 192.668 84.1451 192.734 83.69 192.7C83.1034 192.709 82.5233 192.575 82 192.31C81.4541 192.008 81.0031 191.56 80.6976 191.016C80.392 190.472 80.244 189.853 80.27 189.23C80.2505 188.729 80.3366 188.23 80.5227 187.765C80.7087 187.3 80.9906 186.879 81.35 186.53C82.0013 185.937 82.86 185.625 83.74 185.66C84.2989 185.62 84.8583 185.73 85.3609 185.978C85.8635 186.226 86.2911 186.603 86.6 187.07L85.93 187.6C85.7187 187.216 85.4047 186.899 85.0233 186.683C84.6418 186.468 84.2078 186.363 83.77 186.38C83.0683 186.439 82.4144 186.76 81.9379 187.279C81.4613 187.797 81.1969 188.476 81.1969 189.18C81.1969 189.884 81.4613 190.563 81.9379 191.081C82.4144 191.6 83.0683 191.921 83.77 191.98C84.0743 191.995 84.3784 191.949 84.665 191.846C84.9516 191.743 85.2149 191.584 85.4398 191.378C85.6647 191.173 85.8468 190.925 85.9756 190.649C86.1043 190.373 86.1772 190.074 86.19 189.77H84.28V189.06H87.05Z" fill="#6C3078"/>
<path d="M89.6601 189.45L87.3901 185.8H88.3101L90.0701 188.72L91.8201 185.8H92.7401L90.4601 189.45V192.53H89.6601V189.45Z" fill="#6C3078"/>
<path d="M97.64 187.96L96.79 192.53H96.02L97.38 185.54L99.72 191.09L102.08 185.54L103.44 192.53H102.65L101.8 187.96L99.72 192.78L97.64 187.96Z" fill="#6C3078"/>
<path d="M109.78 192.53H108.91L108.04 190.46H105.42L104.55 192.53H103.68L106.68 185.53L109.78 192.53ZM105.65 189.78H107.8L106.72 187.31L105.65 189.78Z" fill="#6C3078"/>
<path d="M110.6 185.81H112.18C112.716 185.74 113.26 185.856 113.72 186.14C113.932 186.326 114.099 186.558 114.208 186.818C114.317 187.077 114.366 187.359 114.35 187.64C114.35 188.74 113.72 189.32 112.54 189.32H112.4L114.97 192.53H113.97L111.52 189.32H111.4V192.53H110.62L110.6 185.81ZM111.38 188.73H112C113 188.73 113.56 188.58 113.56 187.65C113.56 186.72 113.06 186.48 112 186.48H111.38V188.73Z" fill="#6C3078"/>
<path d="M115.76 185.8H116.55V188.79L119.37 185.8H120.33L117.44 188.83L120.61 192.53H119.58L116.55 188.91V192.53H115.76V185.8Z" fill="#6C3078"/>
<path d="M121.45 185.8H124.99V186.54H122.24V188.46H124.99V189.21H122.24V191.78H124.99V192.53H121.45V185.8Z" fill="#6C3078"/>
<path d="M127.65 186.56H125.75V185.81H130.34V186.56H128.46V192.53H127.65V186.56Z" fill="#6C3078"/>
<path d="M140.09 191.67C139.409 192.33 138.498 192.699 137.55 192.699C136.602 192.699 135.691 192.33 135.01 191.67C134.676 191.345 134.411 190.956 134.23 190.527C134.048 190.097 133.955 189.636 133.955 189.17C133.955 188.704 134.048 188.243 134.23 187.813C134.411 187.384 134.676 186.995 135.01 186.67C135.693 186.015 136.603 185.649 137.55 185.649C138.497 185.649 139.407 186.015 140.09 186.67C140.424 186.995 140.689 187.384 140.87 187.813C141.051 188.243 141.145 188.704 141.145 189.17C141.145 189.636 141.051 190.097 140.87 190.527C140.689 190.956 140.424 191.345 140.09 191.67ZM139.49 191.13C139.75 190.877 139.956 190.573 140.095 190.238C140.234 189.903 140.304 189.543 140.3 189.18C140.307 188.809 140.238 188.441 140.099 188.097C139.96 187.754 139.753 187.442 139.49 187.18C138.973 186.666 138.274 186.378 137.545 186.378C136.816 186.378 136.117 186.666 135.6 187.18C135.339 187.443 135.134 187.755 134.997 188.099C134.859 188.442 134.792 188.81 134.8 189.18C134.795 189.726 134.953 190.26 135.254 190.715C135.554 191.171 135.984 191.526 136.488 191.735C136.992 191.945 137.546 191.999 138.081 191.891C138.616 191.783 139.107 191.518 139.49 191.13Z" fill="#6C3078"/>
<path d="M143.35 192.53H142.57V185.81H144C144.588 185.739 145.184 185.858 145.7 186.15C145.913 186.338 146.083 186.569 146.2 186.827C146.317 187.086 146.377 187.366 146.377 187.65C146.377 187.934 146.317 188.214 146.2 188.473C146.083 188.732 145.913 188.962 145.7 189.15C145.183 189.438 144.588 189.557 144 189.49H143.37L143.35 192.53ZM143.76 188.78C144.91 188.78 145.5 188.63 145.5 187.7C145.5 186.77 144.93 186.54 143.76 186.54H143.35V188.78H143.76Z" fill="#6C3078"/>
<path d="M147.48 185.8H151.02V186.54H148.27V188.46H151.02V189.21H148.27V191.78H151.02V192.53H147.48V185.8Z" fill="#6C3078"/>
<path d="M152.5 185.81H154.08C154.619 185.741 155.166 185.857 155.63 186.14C155.838 186.328 156.002 186.561 156.109 186.82C156.216 187.08 156.265 187.36 156.25 187.64C156.25 188.74 155.63 189.32 154.44 189.32H154.3L156.86 192.53H155.86L153.41 189.32H153.29V192.53H152.51L152.5 185.81ZM153.28 188.73H153.89C154.95 188.73 155.46 188.58 155.46 187.65C155.46 186.72 154.96 186.48 153.89 186.48H153.28V188.73Z" fill="#6C3078"/>
<path d="M162.84 192.53H162L161.12 190.46H158.5L157.63 192.53H156.76L159.76 185.53L162.84 192.53ZM158.71 189.78H160.86L159.78 187.31L158.71 189.78Z" fill="#6C3078"/>
<path d="M164.31 186.56H162.42V185.81H167.01V186.56H165.13V192.53H164.31V186.56Z" fill="#6C3078"/>
<path d="M173.34 191.67C172.659 192.33 171.748 192.699 170.8 192.699C169.852 192.699 168.941 192.33 168.26 191.67C167.926 191.345 167.661 190.956 167.48 190.527C167.298 190.097 167.205 189.636 167.205 189.17C167.205 188.704 167.298 188.243 167.48 187.813C167.661 187.384 167.926 186.995 168.26 186.67C168.941 186.019 169.848 185.661 170.79 185.67C171.737 185.661 172.651 186.019 173.34 186.67C173.671 186.997 173.934 187.386 174.114 187.815C174.294 188.244 174.386 188.705 174.386 189.17C174.386 189.635 174.294 190.096 174.114 190.525C173.934 190.954 173.671 191.343 173.34 191.67ZM172.74 191.13C172.999 190.876 173.203 190.572 173.34 190.237C173.478 189.902 173.546 189.542 173.54 189.18C173.547 188.816 173.48 188.454 173.345 188.115C173.209 187.777 173.007 187.469 172.751 187.21C172.495 186.951 172.189 186.746 171.852 186.607C171.516 186.468 171.154 186.397 170.79 186.4C170.429 186.397 170.072 186.466 169.739 186.603C169.405 186.74 169.103 186.943 168.85 187.2C168.588 187.462 168.381 187.774 168.242 188.118C168.103 188.461 168.034 188.829 168.04 189.2C168.037 189.563 168.107 189.922 168.246 190.257C168.386 190.592 168.591 190.896 168.85 191.15C169.1 191.412 169.402 191.619 169.735 191.76C170.069 191.901 170.428 191.973 170.79 191.97C171.162 191.978 171.531 191.91 171.876 191.769C172.22 191.628 172.531 191.417 172.79 191.15" fill="#6C3078"/>
<path d="M175.82 185.81H177.4C177.936 185.74 178.479 185.857 178.94 186.14C179.149 186.328 179.315 186.56 179.423 186.819C179.532 187.078 179.582 187.359 179.57 187.64C179.57 188.74 178.94 189.32 177.75 189.32H177.61L180.18 192.53H179.18L176.73 189.32H176.62V192.53H175.84L175.82 185.81ZM176.6 188.73H177.21C178.21 188.73 178.78 188.58 178.78 187.65C178.78 186.72 178.27 186.48 177.21 186.48H176.6V188.73Z" fill="#6C3078"/>
</g>
<defs>
<clipPath id="clip0_478_43861">
<rect width="180.18" height="192.79" fill="white"/>
</clipPath>
</defs>
</svg>
