<svg width="350" height="115" viewBox="0 0 350 115" fill="none" xmlns="http://www.w3.org/2000/svg">
<g clip-path="url(#clip0_478_43822)">
<path d="M83.2598 0C83.2598 0 117.72 20.47 100.73 58.91C98.3298 64.34 93.1798 71.24 87.4998 77.07C87.8498 77.49 88.1998 77.91 88.4998 78.34C94.1607 72.7515 98.9056 66.3058 102.56 59.24C107.46 49.46 109.1 39.45 107.15 29.96C110.22 40.74 108.7 52.28 103.06 63.56C99.7674 69.9933 95.5864 75.9315 90.6398 81.2C90.9798 81.7 91.3198 82.2 91.6398 82.71C97.026 77.1352 101.561 70.7971 105.1 63.9C110.33 53.46 112.1 42.75 110 32.6C113.29 44.13 111.66 56.47 105.63 68.53C102.378 74.8892 98.2992 80.7904 93.4998 86.08C93.7998 86.7 94.0898 87.32 94.3498 87.96C99.6881 82.2561 104.208 75.8381 107.78 68.89C113.36 57.73 115.25 46.27 113.01 35.41C116.53 47.74 114.79 60.95 108.34 73.84C104.956 80.4626 100.731 86.6203 95.7698 92.16C95.9798 92.96 96.1498 93.78 96.2898 94.6C102.003 88.517 106.83 81.6597 110.63 74.23C116.63 62.23 118.63 50.04 116.23 38.42C120 51.61 118.13 65.73 111.23 79.52C107.341 87.1097 102.432 94.1315 96.6398 100.39C96.5907 101.57 96.4638 102.746 96.2598 103.91C103.257 96.8454 109.131 88.7517 113.68 79.91C120.07 67.13 122.23 54.05 119.68 41.62C123.68 55.73 121.68 70.82 114.33 85.57C109.42 95.38 102.12 105.03 92.6398 114.13L92.3698 114.37C92.9121 114.455 93.4609 114.492 94.0098 114.48H94.2098C94.5998 114.48 95.0598 114.48 95.5698 114.41C104.247 106.22 111.491 96.634 117 86.05C123.84 72.38 126.14 58.38 123.4 45.1C127.71 60.18 125.5 76.29 117.68 92.1C113.874 99.5695 109.173 106.548 103.68 112.88C103.68 112.88 106.62 111.97 108.18 111.37C112.927 105.567 117.037 99.271 120.44 92.59C127.76 78 130.23 63 127.29 48.77C131.91 64.9 129.7 82 121.18 99C119.83 101.71 116.58 107.18 116.58 107.18C116.58 107.18 120.52 104.54 122.39 102.91C123.02 101.78 123.62 100.65 124.18 99.52C138 72 135.69 43.24 114 19.91C98.7498 3.6 87.0798 0.51 83.2598 0Z" fill="#6C3078"/>
<path d="M46.83 70.38C38.4158 70.2646 30.0251 71.2975 21.89 73.45L20.38 73.89C22.5159 71.1075 25.0033 68.6134 27.78 66.47C40.38 56.62 60.02 47.47 84.78 42.62C89 41.79 97.4 40.56 97.4 40.56L96.3 39.83C92.3 40.37 88.3 41.0366 84.3 41.83C59.2 46.73 39 55.67 26.4 66.06C17 73.86 14 81.44 13.15 84.83C14.23 77.42 19.23 70 27.42 63.17C40.56 52.17 61.89 42.85 88.31 37.67C89.42 37.45 90.52 37.25 91.63 37.06L90.28 36.35L87.83 36.8C61 42.06 39.32 51.58 25.93 62.73C18.34 69.05 13.43 75.9 11.77 82.8C12.93 74.87 18.33 67 27 59.63C48.7 41.27 85 33.9 85 33.9L83.35 33.23C58.48 39.09 38.35 48.42 25.46 59.17C17.33 65.93 12.07 73.26 10.3 80.63C11.53 72.16 17.3 63.69 26.61 55.86C46.48 39.21 77.39 31.23 77.39 31.23C77.39 31.23 76.02 30.83 75.33 30.65C54 36.88 36.66 45.57 24.91 55.36C16.23 62.59 10.61 70.43 8.72 78.36C10 69.25 16.24 60.08 26.17 51.83C41.91 38.74 68.66 29.22 68.66 29.22C68.66 29.22 66.94 28.94 66.07 28.83C48.82 35 34.59 42.76 24.35 51.29C15.07 59 9.06 67.4 7 75.83C8.42 66.14 15.18 56.17 25.66 47.51C39.47 36.08 58.66 28.17 58.66 28.17C58.66 28.17 56.46 28.1 55.35 28.1C42.69 33.66 32 40.06 23.75 46.93C13.82 55.21 7.4 64.17 5.23 73.19C6.74 62.82 14 52.19 25.23 42.89C32.0567 37.3601 39.428 32.5387 47.23 28.5C47.23 28.5 45.31 28.68 44.31 28.83L42.87 29C35.8751 32.7918 29.2555 37.2384 23.1 42.28C12.49 51.12 5.61 60.71 3.29 70.36C4.91 59.27 12.21 48.36 24.64 37.95C27.48 35.58 33.91 31 33.91 31C33.91 31 29.77 32.25 27.69 33.17C25.85 34.53 24.13 35.95 22.42 37.28C7.59 48.91 0.08 63 0 75.8V76.18C0.08 89.51 8.21 101.49 24.55 108C32.7391 98.5546 43.3975 91.5771 55.33 87.85C67.3088 84.2686 80.2169 85.5587 91.25 91.44C91.25 91.44 88.29 70.8 46.83 70.38ZM16.18 81.64C20.0282 79.904 23.999 78.4534 28.06 77.3C40.4889 73.667 53.6427 73.2882 66.26 76.2C55.1888 74.1952 43.8034 74.7874 33 77.93C26.856 79.7057 20.9242 82.1468 15.31 85.21C15.497 84.0005 15.7881 82.8094 16.18 81.65V81.64ZM22.35 75.09C35.6447 71.2047 49.7148 70.8018 63.21 73.92C51.3666 71.7754 39.1871 72.4087 27.63 75.77C24.0075 76.7953 20.4565 78.0581 17 79.55C17.4 78.65 18.34 76.99 18.8 76.2C20 75.81 21.16 75.43 22.35 75.09ZM15.1 87.09C20.888 83.832 27.0273 81.242 33.4 79.37C45.0206 75.9799 57.3179 75.6355 69.11 78.37C58.7533 76.5033 48.1049 77.0613 38 80C29.8828 82.3196 22.1818 85.9036 15.18 90.62C15.049 89.4547 15.0222 88.28 15.1 87.11V87.09ZM15.41 92.09C22.4344 87.2422 30.2033 83.5739 38.41 81.23C49.2701 78.0389 60.7684 77.6945 71.8 80.23C62.1204 78.4765 52.1659 78.9934 42.72 81.74C33.0903 84.545 24.1111 89.2283 16.3 95.52C15.9187 94.4275 15.6212 93.3076 15.41 92.17V92.09ZM16.79 96.73C24.55 90.4801 33.4819 85.8458 43.06 83.1C53.2213 80.1314 63.9746 79.8216 74.29 82.2C65.2353 80.5664 55.9253 81.0524 47.09 83.62C36.3618 86.7382 26.5057 92.3082 18.3 99.89C17.7306 98.897 17.2262 97.8682 16.79 96.81V96.73ZM18.94 101C27.0337 93.4367 36.7933 87.8837 47.43 84.79C56.9302 82.0124 66.9843 81.7198 76.63 83.94C68.1645 82.4108 59.4598 82.866 51.2 85.27C39.6357 88.6562 29.1789 95.0545 20.9 103.81C20.18 102.863 19.5467 101.927 19 101H18.94ZM55 86.82C42.8214 90.4133 31.9836 97.541 23.86 107.3C23.06 106.44 22.31 105.58 21.63 104.74C29.7841 96.0691 40.1067 89.734 51.53 86.39C60.4153 83.7934 69.8179 83.5179 78.84 85.59C70.905 84.1534 62.745 84.5744 55 86.82Z" fill="#6C3078"/>
<path d="M191.23 89.33H184.4L177.49 73.08H156.78L149.88 89.33H143.06L167.06 34.17L191.23 89.33ZM158.64 67.65H175.57L167.1 48.13L158.64 67.65Z" fill="#6C3078"/>
<path d="M196.72 36.26H224.7V42.04H203.03V57.26H224.7V63.12H203.03V83.47H224.7V89.33H196.72V36.26Z" fill="#6C3078"/>
<path d="M243.63 53.2601L236.95 89.3301H230.79L241.56 34.1801L260.11 78.0401L278.67 34.1801L289.44 89.3301H283.27L276.51 53.2601L260.11 91.4101L243.63 53.2601Z" fill="#6C3078"/>
<path d="M339.38 82.58C334.005 87.8113 326.8 90.7385 319.3 90.7385C311.799 90.7385 304.595 87.8113 299.22 82.58C296.59 80.0152 294.5 76.9501 293.073 73.565C291.645 70.18 290.91 66.5436 290.91 62.87C290.91 59.1964 291.645 55.56 293.073 52.1749C294.5 48.7899 296.59 45.7247 299.22 43.16C304.62 37.9774 311.815 35.0835 319.3 35.0835C326.785 35.0835 333.98 37.9774 339.38 43.16C341.993 45.7345 344.068 48.8028 345.484 52.1865C346.9 55.5703 347.63 59.2018 347.63 62.87C347.63 66.5381 346.9 70.1697 345.484 73.5534C344.068 76.9371 341.993 80.0055 339.38 82.58ZM334.63 78.34C336.673 76.3249 338.289 73.9196 339.383 71.2671C340.478 68.6146 341.027 65.7692 341 62.9C341.026 60.0084 340.474 57.1409 339.376 54.4655C338.279 51.7901 336.659 49.3608 334.61 47.32C332.596 45.2951 330.202 43.6883 327.565 42.5918C324.928 41.4953 322.101 40.9309 319.245 40.9309C316.389 40.9309 313.562 41.4953 310.925 42.5918C308.288 43.6883 305.894 45.2951 303.88 47.32C301.841 49.3673 300.227 51.7981 299.132 54.4721C298.037 57.1461 297.482 60.0105 297.5 62.9C297.482 65.7687 298.037 68.6121 299.133 71.2634C300.228 73.9147 301.842 76.3206 303.88 78.34C305.881 80.3879 308.271 82.0153 310.909 83.1263C313.548 84.2374 316.382 84.8097 319.245 84.8097C322.108 84.8097 324.942 84.2374 327.581 83.1263C330.219 82.0153 332.609 80.3879 334.61 78.34" fill="#6C3078"/>
<path d="M147.89 109.31H146.89L145.89 106.93H142.89L141.89 109.31H140.89L144.41 101.24L147.89 109.31ZM143.13 106.14H145.6L144.36 103.28L143.13 106.14Z" fill="#6C3078"/>
<path d="M149.55 101.55V106.38C149.55 107.93 150.17 108.66 151.62 108.66C153.07 108.66 153.69 107.93 153.69 106.38V101.55H154.62V106.38C154.62 108.47 153.62 109.52 151.62 109.52C149.62 109.52 148.62 108.52 148.62 106.38V101.55H149.55Z" fill="#6C3078"/>
<path d="M161 107.13C160.979 107.723 160.747 108.288 160.345 108.724C159.943 109.16 159.399 109.438 158.81 109.507C158.221 109.576 157.627 109.431 157.135 109.1C156.643 108.768 156.287 108.272 156.13 107.7L156.97 107.29C157.19 108.24 157.73 108.72 158.51 108.72C158.709 108.738 158.909 108.714 159.098 108.65C159.287 108.586 159.46 108.482 159.607 108.346C159.753 108.21 159.869 108.045 159.947 107.861C160.025 107.678 160.064 107.48 160.06 107.28C160.051 106.926 159.93 106.585 159.714 106.304C159.498 106.024 159.199 105.819 158.86 105.72L157.86 105.32C157.425 105.193 157.043 104.93 156.768 104.57C156.493 104.211 156.339 103.773 156.33 103.32C156.341 103.049 156.407 102.783 156.524 102.539C156.641 102.294 156.806 102.076 157.01 101.897C157.214 101.719 157.452 101.583 157.71 101.5C157.968 101.416 158.24 101.385 158.51 101.41C158.922 101.385 159.332 101.482 159.688 101.691C160.044 101.899 160.33 102.209 160.51 102.58L159.75 103.07C159.637 102.815 159.454 102.597 159.222 102.441C158.99 102.285 158.719 102.198 158.44 102.19C158.287 102.179 158.133 102.2 157.988 102.251C157.843 102.303 157.711 102.384 157.599 102.489C157.487 102.594 157.398 102.721 157.338 102.863C157.278 103.004 157.248 103.156 157.25 103.31C157.25 103.86 157.59 104.26 158.3 104.56L159.41 105.05C159.858 105.197 160.248 105.482 160.523 105.865C160.798 106.248 160.944 106.708 160.94 107.18" fill="#6C3078"/>
<path d="M163.7 102.42H161.51V101.55H166.82V102.42H164.63V109.31H163.7V102.42Z" fill="#6C3078"/>
<path d="M168 101.55H169.82C170.441 101.47 171.07 101.608 171.6 101.94C171.845 102.152 172.038 102.417 172.165 102.715C172.291 103.013 172.348 103.337 172.33 103.66C172.33 104.93 171.6 105.66 170.24 105.66H170.07L173.07 109.36H171.9L169.06 105.66H168.93V109.36H168V101.55ZM168.9 104.92H169.61C170.82 104.92 171.42 104.75 171.42 103.68C171.42 102.61 170.83 102.33 169.61 102.33H168.9V104.92Z" fill="#6C3078"/>
<path d="M180 109.31H179L178 106.93H175L174 109.31H173L176.51 101.24L180 109.31ZM175.23 106.14H177.7L176.46 103.28L175.23 106.14Z" fill="#6C3078"/>
<path d="M180.9 101.55H181.82V108.43H184.75V109.31H180.9V101.55Z" fill="#6C3078"/>
<path d="M186.93 101.55H186.01V109.32H186.93V101.55Z" fill="#6C3078"/>
<path d="M195 109.31H194L193 106.93H190L189 109.31H188L191.51 101.24L195 109.31ZM190.23 106.14H192.71L191.46 103.28L190.23 106.14Z" fill="#6C3078"/>
<path d="M195.9 101.24L201.58 107.44V101.55H202.46V109.61L196.78 103.48V109.31H195.9V101.24Z" fill="#6C3078"/>
<path d="M207.82 101.55H211.91V102.39H208.74V104.62H211.91V105.48H208.74V108.45H211.91V109.31H207.82V101.55Z" fill="#6C3078"/>
<path d="M213.63 101.24L219.31 107.44V101.55H220.19V109.61L214.51 103.48V109.31H213.63V101.24Z" fill="#6C3078"/>
<path d="M222.19 101.55H226.29V102.39H223.12V104.62H226.29V105.48H223.12V108.45H226.29V109.31H222.19V101.55Z" fill="#6C3078"/>
<path d="M228 101.55H229.83C230.45 101.472 231.079 101.61 231.61 101.94C231.853 102.153 232.045 102.419 232.172 102.717C232.298 103.014 232.356 103.337 232.34 103.66C232.34 104.93 231.61 105.66 230.24 105.66H230.08L233.08 109.36H231.91L229.07 105.66H228.94V109.36H228V101.55ZM228.9 104.92H229.61C230.83 104.92 231.42 104.75 231.42 103.68C231.42 102.61 230.83 102.33 229.61 102.33H228.9V104.92Z" fill="#6C3078"/>
<path d="M241.43 105.31V105.56C241.485 106.088 241.424 106.621 241.251 107.123C241.078 107.624 240.798 108.082 240.429 108.463C240.06 108.845 239.612 109.141 239.116 109.33C238.62 109.519 238.089 109.598 237.56 109.56C236.865 109.578 236.177 109.42 235.56 109.1C234.93 108.752 234.41 108.236 234.056 107.609C233.703 106.982 233.531 106.269 233.56 105.55C233.535 104.97 233.634 104.39 233.849 103.851C234.065 103.311 234.392 102.824 234.81 102.42C235.563 101.738 236.554 101.379 237.57 101.42C238.215 101.377 238.86 101.505 239.439 101.791C240.018 102.078 240.512 102.512 240.87 103.05L240.1 103.67C239.856 103.225 239.493 102.858 239.051 102.608C238.609 102.359 238.107 102.239 237.6 102.26C237.179 102.258 236.763 102.344 236.378 102.513C235.993 102.683 235.648 102.931 235.365 103.242C235.082 103.553 234.868 103.92 234.736 104.32C234.604 104.719 234.558 105.142 234.6 105.56C234.577 105.968 234.637 106.376 234.778 106.76C234.918 107.144 235.135 107.495 235.416 107.792C235.697 108.089 236.036 108.325 236.411 108.486C236.787 108.648 237.191 108.731 237.6 108.73C237.951 108.747 238.303 108.695 238.634 108.576C238.965 108.458 239.27 108.274 239.53 108.037C239.79 107.8 240.001 107.514 240.15 107.195C240.3 106.877 240.384 106.532 240.4 106.18H238.19V105.36L241.43 105.31Z" fill="#6C3078"/>
<path d="M244.45 105.76L241.82 101.55H242.89L244.92 104.91L246.94 101.55H248.01L245.38 105.76V109.31H244.45V105.76Z" fill="#6C3078"/>
<path d="M253.67 104.03L252.69 109.31H251.79L253.37 101.24L256.08 107.66L258.8 101.24L260.37 109.31H259.47L258.48 104.03L256.08 109.61L253.67 104.03Z" fill="#6C3078"/>
<path d="M267.7 109.31H266.7L265.7 106.93H262.7L261.7 109.31H260.7L264.22 101.24L267.7 109.31ZM262.93 106.14H265.41L264.17 103.28L262.93 106.14Z" fill="#6C3078"/>
<path d="M268.65 101.55H270.48C271.1 101.471 271.729 101.609 272.26 101.94C272.503 102.153 272.695 102.419 272.822 102.717C272.948 103.014 273.005 103.337 272.99 103.66C272.99 104.93 272.26 105.66 270.89 105.66H270.73L273.73 109.36H272.56L269.72 105.66H269.59V109.36H268.69L268.65 101.55ZM269.55 104.92H270.26C271.47 104.92 272.07 104.75 272.07 103.68C272.07 102.61 271.49 102.33 270.26 102.33H269.55V104.92Z" fill="#6C3078"/>
<path d="M274.61 101.55H275.52V105L278.78 101.55H279.89L276.56 105.04L280.21 109.31H279.02L275.52 105.13V109.31H274.61V101.55Z" fill="#6C3078"/>
<path d="M281.18 101.55H285.27V102.39H282.1V104.62H285.27V105.48H282.1V108.45H285.27V109.31H281.18V101.55Z" fill="#6C3078"/>
<path d="M288.35 102.42H286.15V101.55H291.46V102.42H289.28V109.31H288.35V102.42Z" fill="#6C3078"/>
<path d="M302.73 108.32C301.944 109.088 300.889 109.518 299.79 109.52C298.694 109.522 297.64 109.091 296.86 108.32C296.471 107.947 296.162 107.499 295.951 107.003C295.74 106.507 295.631 105.974 295.631 105.435C295.631 104.896 295.74 104.363 295.951 103.867C296.162 103.371 296.471 102.923 296.86 102.55C297.65 101.793 298.701 101.37 299.795 101.37C300.889 101.37 301.941 101.793 302.73 102.55C303.119 102.923 303.428 103.371 303.639 103.867C303.851 104.363 303.959 104.896 303.959 105.435C303.959 105.974 303.851 106.507 303.639 107.003C303.428 107.499 303.119 107.947 302.73 108.32ZM302.04 107.7C302.34 107.406 302.577 107.054 302.736 106.665C302.896 106.277 302.976 105.86 302.97 105.44C302.975 105.017 302.895 104.598 302.736 104.206C302.576 103.814 302.339 103.459 302.04 103.16C301.442 102.565 300.633 102.231 299.79 102.231C298.947 102.231 298.138 102.565 297.54 103.16C297.242 103.459 297.006 103.815 296.846 104.207C296.687 104.598 296.606 105.017 296.61 105.44C296.611 106.064 296.796 106.674 297.141 107.194C297.487 107.713 297.979 108.119 298.554 108.361C299.13 108.602 299.764 108.668 300.377 108.55C300.99 108.433 301.555 108.137 302 107.7" fill="#6C3078"/>
<path d="M306.5 109.31H305.6V101.55H307.23C307.905 101.472 308.587 101.608 309.18 101.94C309.429 102.158 309.628 102.426 309.764 102.727C309.901 103.028 309.971 103.355 309.971 103.685C309.971 104.015 309.901 104.342 309.764 104.643C309.628 104.944 309.429 105.212 309.18 105.43C308.589 105.766 307.906 105.906 307.23 105.83H306.5V109.31ZM307 105C308.34 105 309 104.82 309 103.75C309 102.68 308.34 102.4 307 102.4H306.54V105H307Z" fill="#6C3078"/>
<path d="M311.26 101.55H315.36V102.39H312.18V104.62H315.36V105.48H312.18V108.45H315.36V109.31H311.26V101.55Z" fill="#6C3078"/>
<path d="M317.07 101.55H318.89C319.514 101.472 320.145 101.609 320.68 101.94C320.923 102.153 321.115 102.419 321.241 102.717C321.368 103.014 321.425 103.337 321.41 103.66C321.41 104.93 320.68 105.66 319.31 105.66H319.15L322.15 109.36H320.98L318.14 105.66H318V109.36H317.1L317.07 101.55ZM317.97 104.92H318.68C319.89 104.92 320.49 104.75 320.49 103.68C320.49 102.61 319.9 102.33 318.68 102.33H318L317.97 104.92Z" fill="#6C3078"/>
<path d="M329 109.31H328L327 106.93H324L323 109.31H322L325.51 101.24L329 109.31ZM324.23 106.14H326.7L325.46 103.28L324.23 106.14Z" fill="#6C3078"/>
<path d="M330.72 102.42H328.53V101.55H333.84V102.42H331.66V109.31H330.72V102.42Z" fill="#6C3078"/>
<path d="M341.15 108.32C340.362 109.086 339.308 109.516 338.21 109.52C337.11 109.521 336.054 109.09 335.27 108.32C334.881 107.947 334.572 107.499 334.361 107.003C334.149 106.507 334.041 105.974 334.041 105.435C334.041 104.896 334.149 104.363 334.361 103.867C334.572 103.371 334.881 102.923 335.27 102.55C336.061 101.792 337.114 101.369 338.21 101.369C339.305 101.369 340.359 101.792 341.15 102.55C341.53 102.928 341.831 103.378 342.037 103.873C342.243 104.368 342.349 104.899 342.349 105.435C342.349 105.971 342.243 106.502 342.037 106.997C341.831 107.492 341.53 107.942 341.15 108.32ZM340.45 107.7C340.749 107.406 340.986 107.054 341.146 106.665C341.306 106.277 341.385 105.86 341.38 105.44C341.385 105.017 341.305 104.598 341.145 104.206C340.986 103.814 340.749 103.459 340.45 103.16C340.155 102.865 339.805 102.63 339.42 102.47C339.035 102.31 338.622 102.228 338.205 102.228C337.788 102.228 337.375 102.31 336.989 102.47C336.604 102.63 336.254 102.865 335.96 103.16C335.66 103.459 335.423 103.814 335.261 104.206C335.1 104.597 335.018 105.017 335.02 105.44C335.018 105.86 335.1 106.277 335.261 106.665C335.423 107.053 335.66 107.405 335.96 107.7C336.252 108 336.601 108.239 336.986 108.402C337.372 108.565 337.786 108.649 338.205 108.649C338.623 108.649 339.038 108.565 339.423 108.402C339.809 108.239 340.158 108 340.45 107.7Z" fill="#6C3078"/>
<path d="M344 101.55H345.82C346.444 101.472 347.075 101.609 347.61 101.94C347.853 102.153 348.045 102.419 348.172 102.717C348.298 103.014 348.356 103.337 348.34 103.66C348.34 104.93 347.61 105.66 346.24 105.66H346.07L349.07 109.36H347.9L345.06 105.66H344.93V109.36H344V101.55ZM344.9 104.92H345.61C346.82 104.92 347.42 104.75 347.42 103.68C347.42 102.61 346.84 102.33 345.61 102.33H344.9V104.92Z" fill="#6C3078"/>
</g>
<defs>
<clipPath id="clip0_478_43822">
<rect width="349.05" height="114.51" fill="white"/>
</clipPath>
</defs>
</svg>
