<svg width="679" height="229" viewBox="0 0 679 229" fill="none" xmlns="http://www.w3.org/2000/svg">
<path d="M116 85L85.6842 61H84" stroke="#F74480"/>
<path d="M84 61L77 61" stroke="#F74480"/>
<circle opacity="0.2" r="6" transform="matrix(-1 0 0 1 116 85)" fill="#F74480"/>
<circle r="3" transform="matrix(-1 0 0 1 116 85)" fill="#F74480"/>
<path d="M19.6248 66.712V65.816H20.6748V66.362L21.3468 67.048H24.7068L25.4068 66.334V64.136L24.7068 63.45H20.9408L19.6528 62.162V59.488L20.9408 58.2H25.0568L26.3448 59.488V60.398H25.3088V59.838L24.6088 59.152H21.4028L20.7028 59.838V61.812L21.4028 62.498H25.1688L26.4568 63.786V66.684L25.1408 68H20.9128L19.6248 66.712ZM34.5668 61.028V69.778L33.2788 71.052H29.9188L28.8408 69.974V69.12H29.8768V69.652L30.3668 70.128H32.8308L33.5308 69.442V66.516L32.0468 68H29.9188L28.6308 66.712V61.028H29.6668V66.39L30.3668 67.076H31.7668L33.5308 65.312V61.028H34.5668ZM36.6715 66.852V65.984H37.7075V66.558L38.2675 67.104H40.8435L41.4035 66.558V65.48L40.8435 64.92H37.8335L36.7275 63.814V62.176L37.8755 61.028H41.1515L42.2995 62.176V63.044H41.2635V62.47L40.7035 61.924H38.3235L37.7635 62.47V63.492L38.3235 64.052H41.2915L42.4395 65.2V66.852L41.2915 68H37.8195L36.6715 66.852ZM45.1655 66.712V61.938H43.9055V61.028H45.1935V58.76H46.2015V61.028H48.3855V61.938H46.2015V66.39L46.9015 67.09H48.3855V68H46.4535L45.1655 66.712ZM49.9955 66.712V62.316L51.2835 61.028H54.7975L56.0995 62.316V64.822H51.0315V66.39L51.7315 67.076H54.3495L55.0495 66.39V65.858H56.0855V66.712L54.7975 68H51.2835L49.9955 66.712ZM55.0635 63.926V62.638L54.3635 61.952H51.7315L51.0315 62.638V63.926H55.0635ZM58.3332 61.028H59.3412V62.372L60.6852 61.028H62.3512L63.4432 62.12L64.5352 61.028H66.7332L68.0212 62.316V68H66.9852V62.638L66.2852 61.952H64.7452L63.7652 62.932V68H62.7572V62.638L62.0572 61.952H60.8812L59.3692 63.464V68H58.3332V61.028Z" fill="#F74480"/>
<path d="M452 119L421.684 153H420" stroke="#F74480"/>
<path d="M420 153L408 153" stroke="#F74480"/>
<circle opacity="0.2" cx="452" cy="119" r="6" transform="rotate(-180 452 119)" fill="#F74480"/>
<circle cx="452" cy="119" r="3" transform="rotate(-180 452 119)" fill="#F74480"/>
<path d="M352.9 150.2H354.006L356.918 158.726H356.946L359.858 150.2H360.964L357.506 160H356.358L352.9 150.2ZM361.588 158.852V157.074L362.736 155.94H366.46V154.61L365.76 153.924H363.38L362.68 154.61V155.184H361.644V154.316L362.932 153.028H366.194L367.482 154.316V160H366.488V158.768L365.2 160H362.736L361.588 158.852ZM364.99 159.104L366.46 157.69V156.836H363.184L362.624 157.382V158.558L363.184 159.104H364.99ZM369.859 153.028H370.867V154.274L372.113 153.028H373.919V153.952H372.379L370.895 155.436V160H369.859V153.028ZM375.526 151.432V150.816L375.946 150.396H376.562L376.982 150.816V151.432L376.562 151.852H375.946L375.526 151.432ZM375.736 153.028H376.772V160H375.736V153.028ZM379.154 158.852V157.074L380.302 155.94H384.026V154.61L383.326 153.924H380.946L380.246 154.61V155.184H379.21V154.316L380.498 153.028H383.76L385.048 154.316V160H384.054V158.768L382.766 160H380.302L379.154 158.852ZM382.556 159.104L384.026 157.69V156.836H380.75L380.19 157.382V158.558L380.75 159.104H382.556ZM387.425 153.028H388.433V154.512L389.917 153.028H392.059L393.347 154.316V160H392.311V154.638L391.611 153.952H390.197L388.461 155.688V160H387.425V153.028ZM396.225 158.712V153.938H394.965V153.028H396.253V150.76H397.261V153.028H399.445V153.938H397.261V158.39L397.961 159.09H399.445V160H397.513L396.225 158.712Z" fill="#F74480"/>
<path d="M565 122L595.316 153H597" stroke="#F74480"/>
<path d="M597 153L609 153" stroke="#F74480"/>
<circle opacity="0.2" r="6" transform="matrix(1 0 0 -1 565 122)" fill="#F74480"/>
<circle r="3" transform="matrix(1 0 0 -1 565 122)" fill="#F74480"/>
<path d="M617.91 158.712V157.816H618.96V158.362L619.632 159.048H622.992L623.692 158.334V156.136L622.992 155.45H619.226L617.938 154.162V151.488L619.226 150.2H623.342L624.63 151.488V152.398H623.594V151.838L622.894 151.152H619.688L618.988 151.838V153.812L619.688 154.498H623.454L624.742 155.786V158.684L623.426 160H619.198L617.91 158.712ZM626.778 158.712V154.316L628.066 153.028H631.426L632.714 154.316V155.17H631.678V154.638L630.978 153.952H628.514L627.814 154.638V158.39L628.514 159.076H630.978L631.678 158.39V157.858H632.714V158.712L631.426 160H628.066L626.778 158.712ZM634.536 158.852V157.074L635.684 155.94H639.408V154.61L638.708 153.924H636.328L635.628 154.61V155.184H634.592V154.316L635.88 153.028H639.142L640.43 154.316V160H639.436V158.768L638.148 160H635.684L634.536 158.852ZM637.938 159.104L639.408 157.69V156.836H636.132L635.572 157.382V158.558L636.132 159.104H637.938ZM642.877 150.004H643.913V160H642.877V150.004ZM646.298 158.712V154.316L647.586 153.028H651.1L652.402 154.316V156.822H647.334V158.39L648.034 159.076H650.652L651.352 158.39V157.858H652.388V158.712L651.1 160H647.586L646.298 158.712ZM651.366 155.926V154.638L650.666 153.952H648.034L647.334 154.638V155.926H651.366Z" fill="#F74480"/>
<path d="M194 124L163.684 148H162" stroke="#F74480"/>
<path d="M162 148L150 148" stroke="#F74480"/>
<circle opacity="0.2" cx="194" cy="124" r="6" transform="rotate(-180 194 124)" fill="#F74480"/>
<circle cx="194" cy="124" r="3" transform="rotate(-180 194 124)" fill="#F74480"/>
<path d="M81.5632 153.46V146.74L83.1032 145.2H87.3032L88.7872 146.684V147.58H87.7232V147.034L86.8272 146.152H83.5792L82.6272 147.09V153.11L83.5792 154.048H86.8272L87.7232 153.166V152.62H88.7872V153.516L87.3032 155H83.1032L81.5632 153.46ZM90.6052 153.852V152.074L91.7532 150.94H95.4772V149.61L94.7772 148.924H92.3972L91.6972 149.61V150.184H90.6612V149.316L91.9492 148.028H95.2112L96.4992 149.316V155H95.5052V153.768L94.2172 155H91.7532L90.6052 153.852ZM94.0072 154.104L95.4772 152.69V151.836H92.2012L91.6412 152.382V153.558L92.2012 154.104H94.0072ZM99.3695 153.712V148.938H98.1095V148.028H99.3975V145.76H100.405V148.028H102.589V148.938H100.405V153.39L101.105 154.09H102.589V155H100.657L99.3695 153.712ZM104.199 153.712V149.316L105.487 148.028H109.001L110.303 149.316V151.822H105.235V153.39L105.935 154.076H108.553L109.253 153.39V152.858H110.289V153.712L109.001 155H105.487L104.199 153.712ZM109.267 150.926V149.638L108.567 148.952H105.935L105.235 149.638V150.926H109.267ZM118.557 148.028V156.778L117.283 158.052H113.825L112.747 156.974V156.12H113.783V156.638L114.273 157.128H116.821L117.521 156.442V153.838L116.233 155H113.685L112.397 153.712V149.316L113.685 148.028H116.331L117.549 149.246V148.028H118.557ZM117.521 150.422L116.051 148.952H114.133L113.433 149.638V153.39L114.133 154.076H116.065L117.521 152.718V150.422ZM120.868 153.712V149.316L122.156 148.028H125.74L127.028 149.316V153.712L125.74 155H122.156L120.868 153.712ZM125.292 154.076L125.992 153.39V149.638L125.292 148.952H122.604L121.904 149.638V153.39L122.604 154.076H125.292ZM129.343 148.028H130.351V149.274L131.597 148.028H133.403V148.952H131.863L130.379 150.436V155H129.343V148.028ZM140.945 148.028V156.778L139.657 158.052H136.297L135.219 156.974V156.12H136.255V156.652L136.745 157.128H139.209L139.909 156.442V153.516L138.425 155H136.297L135.009 153.712V148.028H136.045V153.39L136.745 154.076H138.145L139.909 152.312V148.028H140.945Z" fill="#F74480"/>
<path d="M332 80L301.684 51H300" stroke="#F74480"/>
<path d="M300 51L288 51" stroke="#F74480"/>
<circle opacity="0.2" r="6" transform="matrix(-1 0 0 1 332 80)" fill="#F74480"/>
<circle r="3" transform="matrix(-1 0 0 1 332 80)" fill="#F74480"/>
<path d="M195.174 56.712V55.816H196.224V56.362L196.896 57.048H200.256L200.956 56.334V54.136L200.256 53.45H196.49L195.202 52.162V49.488L196.49 48.2H200.606L201.894 49.488V50.398H200.858V49.838L200.158 49.152H196.952L196.252 49.838V51.812L196.952 52.498H200.718L202.006 53.786V56.684L200.69 58H196.462L195.174 56.712ZM204.18 56.712V51.028H205.216V56.39L205.916 57.076H207.316L209.052 55.34V51.028H210.088V58H209.08V56.516L207.596 58H205.468L204.18 56.712ZM212.543 56.712V48.004H213.579V52.386L214.937 51.028H217.387L218.675 52.316V56.712L217.387 58H213.831L212.543 56.712ZM216.939 57.076L217.639 56.39V52.638L216.939 51.952H215.231L213.579 53.604V56.39L214.279 57.076H216.939ZM220.847 56.712V52.316L222.135 51.028H225.495L226.783 52.316V53.17H225.747V52.638L225.047 51.952H222.583L221.883 52.638V56.39L222.583 57.076H225.047L225.747 56.39V55.858H226.783V56.712L225.495 58H222.135L220.847 56.712ZM228.605 56.852V55.074L229.753 53.94H233.477V52.61L232.777 51.924H230.397L229.697 52.61V53.184H228.661V52.316L229.949 51.028H233.211L234.499 52.316V58H233.505V56.768L232.217 58H229.753L228.605 56.852ZM232.007 57.104L233.477 55.69V54.836H230.201L229.641 55.382V56.558L230.201 57.104H232.007ZM237.369 56.712V51.938H236.109V51.028H237.397V48.76H238.405V51.028H240.589V51.938H238.405V56.39L239.105 57.09H240.589V58H238.657L237.369 56.712ZM242.199 56.712V52.316L243.487 51.028H247.001L248.303 52.316V54.822H243.235V56.39L243.935 57.076H246.553L247.253 56.39V55.858H248.289V56.712L247.001 58H243.487L242.199 56.712ZM247.267 53.926V52.638L246.567 51.952H243.935L243.235 52.638V53.926H247.267ZM256.557 51.028V59.778L255.283 61.052H251.825L250.747 59.974V59.12H251.783V59.638L252.273 60.128H254.821L255.521 59.442V56.838L254.233 58H251.685L250.397 56.712V52.316L251.685 51.028H254.331L255.549 52.246V51.028H256.557ZM255.521 53.422L254.051 51.952H252.133L251.433 52.638V56.39L252.133 57.076H254.065L255.521 55.718V53.422ZM258.868 56.712V52.316L260.156 51.028H263.74L265.028 52.316V56.712L263.74 58H260.156L258.868 56.712ZM263.292 57.076L263.992 56.39V52.638L263.292 51.952H260.604L259.904 52.638V56.39L260.604 57.076H263.292ZM267.343 51.028H268.351V52.274L269.597 51.028H271.403V51.952H269.863L268.379 53.436V58H267.343V51.028ZM278.945 51.028V59.778L277.657 61.052H274.297L273.219 59.974V59.12H274.255V59.652L274.745 60.128H277.209L277.909 59.442V56.516L276.425 58H274.297L273.009 56.712V51.028H274.045V56.39L274.745 57.076H276.145L277.909 55.312V51.028H278.945Z" fill="#F74480"/>
<path d="M73.24 98.12H63.36V102.2H73.24V98.12ZM85.0572 98.12H75.1772V102.2H85.0572V98.12ZM103.554 90.8V93.68H103.474C102.074 91.36 99.5544 90.32 96.8744 90.32C90.9544 90.32 87.3944 94.72 87.3944 100.4C87.3944 105.84 91.1944 110.24 96.9544 110.24C99.3544 110.24 101.834 109.32 103.234 107.44H103.314V108.84C103.314 112.64 101.874 115.28 97.2344 115.28C94.5544 115.28 92.5544 114.28 90.6344 112.52L87.7544 116.44C90.4744 118.84 93.7144 119.6 97.2744 119.6C104.754 119.6 108.114 115.2 108.114 108.28V90.8H103.554ZM97.8744 94.64C101.354 94.64 103.554 96.96 103.554 100.28C103.554 103.48 101.394 105.92 97.8344 105.92C94.5944 105.92 92.1944 103.4 92.1944 100.36C92.1944 96.96 94.5144 94.64 97.8744 94.64ZM131.23 102.08V100.76C131.23 94.08 127.59 90.32 122.23 90.32C116.43 90.32 111.79 94.36 111.79 100.4C111.79 106.44 116.43 110.48 122.23 110.48C125.27 110.48 128.11 109.4 130.35 106.64L126.91 104.04C125.71 105.52 124.15 106.64 121.75 106.64C119.07 106.64 116.91 104.92 116.59 102.08H131.23ZM116.59 98.48C116.95 95.72 118.71 93.92 121.55 93.92C124.55 93.92 126.39 95.68 126.43 98.48H116.59ZM134.998 110H139.798V79.76H134.998V110ZM153.029 98.12H143.149V102.2H153.029V98.12ZM172.766 93.24C170.926 91.2 168.246 90.32 165.806 90.32C160.006 90.32 155.366 94.36 155.366 100.4C155.366 106.44 160.006 110.48 165.806 110.48C167.486 110.48 170.766 109.76 172.726 107.8L169.526 104.36C168.646 105.52 167.286 106.16 165.806 106.16C162.286 106.16 160.166 103.4 160.166 100.4C160.166 97.4 162.286 94.64 165.806 94.64C167.086 94.64 168.326 95.4 169.446 96.56L172.766 93.24ZM173.863 100.4C173.863 106.44 178.503 110.48 184.303 110.48C190.103 110.48 194.743 106.44 194.743 100.4C194.743 94.36 190.103 90.32 184.303 90.32C178.503 90.32 173.863 94.36 173.863 100.4ZM178.663 100.4C178.663 97.4 180.783 94.64 184.303 94.64C187.823 94.64 189.943 97.4 189.943 100.4C189.943 103.4 187.823 106.16 184.303 106.16C180.783 106.16 178.663 103.4 178.663 100.4ZM198.517 110H203.317V79.76H198.517V110ZM207.068 100.4C207.068 106.44 211.708 110.48 217.508 110.48C223.308 110.48 227.948 106.44 227.948 100.4C227.948 94.36 223.308 90.32 217.508 90.32C211.708 90.32 207.068 94.36 207.068 100.4ZM211.868 100.4C211.868 97.4 213.988 94.64 217.508 94.64C221.028 94.64 223.148 97.4 223.148 100.4C223.148 103.4 221.028 106.16 217.508 106.16C213.988 106.16 211.868 103.4 211.868 100.4ZM231.642 110H236.442V99.72C236.442 98.68 237.082 94.88 241.602 94.88C242.362 94.88 243.122 95.04 243.922 95.24V90.6C243.362 90.44 242.802 90.32 242.202 90.32C239.682 90.32 237.562 91.64 236.522 93.84H236.442V90.8H231.642V110ZM252.721 98.12H242.841V102.2H252.721V98.12ZM256.018 119.12H260.818V107.56H260.938C261.938 108.8 263.858 110.48 267.458 110.48C272.938 110.48 276.738 106.08 276.738 100.4C276.738 94.72 273.178 90.32 267.258 90.32C264.578 90.32 262.058 91.36 260.658 93.68H260.578V90.8H256.018V119.12ZM271.938 100.4C271.938 103.4 269.818 106.16 266.298 106.16C262.778 106.16 260.658 103.4 260.658 100.4C260.658 97.4 262.778 94.64 266.298 94.64C269.818 94.64 271.938 97.4 271.938 100.4ZM280.414 110H285.214V99.72C285.214 98.68 285.854 94.88 290.374 94.88C291.134 94.88 291.894 95.04 292.694 95.24V90.6C292.134 90.44 291.574 90.32 290.974 90.32C288.454 90.32 286.334 91.64 285.294 93.84H285.214V90.8H280.414V110ZM295.241 110H300.041V90.8H295.241V110ZM294.561 84.28C294.561 85.8 295.841 87.16 297.601 87.16C299.361 87.16 300.721 85.92 300.721 84.28C300.721 82.64 299.361 81.4 297.601 81.4C295.841 81.4 294.561 82.76 294.561 84.28ZM304.551 110H309.351V99.52C309.351 96.96 310.591 94.64 313.751 94.64C316.071 94.64 317.031 96.2 317.031 98.56V110H321.831V99.6C321.831 97.12 322.951 94.64 325.951 94.64C328.791 94.64 329.511 96.72 329.511 99.12V110H334.311V98.56C334.311 93.96 332.511 90.32 327.391 90.32C324.511 90.32 322.471 91.44 321.071 93.88C320.071 91.48 318.031 90.32 315.071 90.32C311.871 90.32 310.031 92 309.191 93.8H309.111V90.8H304.551V110ZM350.756 110H355.076V98.96C355.076 96.24 355.076 90.32 346.876 90.32C343.836 90.32 340.836 91.24 338.716 93.4L341.236 95.92C342.516 94.72 344.356 93.92 346.356 93.92C348.916 93.92 350.756 95.16 350.756 97.52V98.04H349.556C344.756 98.04 337.476 98.48 337.476 104.72C337.476 108.52 340.916 110.48 344.476 110.48C347.036 110.48 349.276 109.52 350.636 107.36H350.756V110ZM350.476 102.48C350.476 105.16 348.916 106.88 345.636 106.88C344.076 106.88 342.276 106.12 342.276 104.36C342.276 101.6 346.836 101.4 349.476 101.4H350.476V102.48ZM359.44 110H364.24V99.72C364.24 98.68 364.88 94.88 369.4 94.88C370.16 94.88 370.92 95.04 371.72 95.24V90.6C371.16 90.44 370.6 90.32 370 90.32C367.48 90.32 365.36 91.64 364.32 93.84H364.24V90.8H359.44V110ZM379.787 110.16L378.867 112.44C378.067 114.44 377.427 115.28 375.067 115.28C374.227 115.28 373.387 115.08 372.627 114.8L372.027 119.12C373.227 119.44 374.467 119.6 375.707 119.6C379.947 119.6 381.627 117.72 383.027 114.12L392.107 90.8H387.107L382.307 104.12H382.227L376.867 90.8H371.587L379.787 110.16ZM402.649 98.12H392.769V102.2H402.649V98.12ZM405.947 119.12H410.747V107.56H410.867C411.867 108.8 413.787 110.48 417.387 110.48C422.867 110.48 426.667 106.08 426.667 100.4C426.667 94.72 423.107 90.32 417.187 90.32C414.507 90.32 411.987 91.36 410.587 93.68H410.507V90.8H405.947V119.12ZM421.867 100.4C421.867 103.4 419.747 106.16 416.227 106.16C412.707 106.16 410.587 103.4 410.587 100.4C410.587 97.4 412.707 94.64 416.227 94.64C419.747 94.64 421.867 97.4 421.867 100.4ZM447.862 90.8H443.062V101.28C443.062 103.84 441.822 106.16 438.662 106.16C435.302 106.16 435.142 102.64 435.142 100.52V90.8H430.342V102.92C430.342 106.84 432.182 110.48 437.342 110.48C440.542 110.48 442.342 108.84 443.222 106.92H443.302V110H447.862V90.8ZM452.511 110H457.311V99.72C457.311 98.68 457.951 94.88 462.471 94.88C463.231 94.88 463.991 95.04 464.791 95.24V90.6C464.231 90.44 463.671 90.32 463.071 90.32C460.551 90.32 458.431 91.64 457.391 93.84H457.311V90.8H452.511V110ZM467.258 119.12H472.058V107.56H472.178C473.178 108.8 475.098 110.48 478.698 110.48C484.178 110.48 487.978 106.08 487.978 100.4C487.978 94.72 484.418 90.32 478.498 90.32C475.818 90.32 473.298 91.36 471.898 93.68H471.818V90.8H467.258V119.12ZM483.178 100.4C483.178 103.4 481.058 106.16 477.538 106.16C474.018 106.16 471.898 103.4 471.898 100.4C471.898 97.4 474.018 94.64 477.538 94.64C481.058 94.64 483.178 97.4 483.178 100.4ZM491.733 110H496.533V79.76H491.733V110ZM519.723 102.08V100.76C519.723 94.08 516.083 90.32 510.723 90.32C504.923 90.32 500.283 94.36 500.283 100.4C500.283 106.44 504.923 110.48 510.723 110.48C513.763 110.48 516.603 109.4 518.843 106.64L515.403 104.04C514.203 105.52 512.643 106.64 510.243 106.64C507.563 106.64 505.403 104.92 505.083 102.08H519.723ZM505.083 98.48C505.443 95.72 507.203 93.92 510.043 93.92C513.043 93.92 514.883 95.68 514.923 98.48H505.083ZM531.932 98.12H522.052V102.2H531.932V98.12ZM552.709 81.68H536.589L536.309 96.96C537.989 96.12 540.149 95.6 542.229 95.6C545.749 95.6 548.869 97.12 548.869 101.08C548.869 103.84 546.829 105.92 543.949 105.92C541.509 105.92 539.949 104.68 539.309 102.64L534.269 104C535.589 108.36 538.949 110.48 543.429 110.48C549.229 110.48 553.669 106.76 553.669 100.68C553.669 94.96 549.789 91.28 544.229 91.28C543.229 91.28 541.949 91.4 541.189 91.64L541.309 86H552.709V81.68ZM556.981 95.84C556.981 109.24 564.061 110.48 567.221 110.48C570.381 110.48 577.461 109.24 577.461 95.84C577.461 82.44 570.381 81.2 567.221 81.2C564.061 81.2 556.981 82.44 556.981 95.84ZM561.781 95.84C561.781 92.32 562.421 85.76 567.221 85.76C572.021 85.76 572.661 92.32 572.661 95.84C572.661 99.36 572.021 105.92 567.221 105.92C562.421 105.92 561.781 99.36 561.781 95.84ZM579.853 95.84C579.853 109.24 586.933 110.48 590.093 110.48C593.253 110.48 600.333 109.24 600.333 95.84C600.333 82.44 593.253 81.2 590.093 81.2C586.933 81.2 579.853 82.44 579.853 95.84ZM584.653 95.84C584.653 92.32 585.293 85.76 590.093 85.76C594.893 85.76 595.533 92.32 595.533 95.84C595.533 99.36 594.893 105.92 590.093 105.92C585.293 105.92 584.653 99.36 584.653 95.84Z" fill="#6B3077"/>
</svg>
