<svg width="1113" height="247" viewBox="0 0 1113 247" fill="none" xmlns="http://www.w3.org/2000/svg">
<rect width="1113" height="247" fill="white"/>
<circle cx="271" cy="105" r="43" stroke="#3C1053" stroke-width="10"/>
<circle cx="271" cy="105" r="22" fill="#6B3077"/>
<circle cx="303" cy="75" r="11" fill="#BF83CD"/>
<circle cx="596.004" cy="69.0036" r="15.2324" stroke="#3C1053" stroke-width="3.54242"/>
<circle cx="596.003" cy="69.0038" r="7.79333" fill="#6B3077"/>
<circle cx="610.916" cy="68.7067" r="3.89666" fill="#BF83CD"/>
<circle cx="596.203" cy="84.5524" r="3.89666" fill="#BF83CD"/>
<circle cx="631.671" cy="69.0036" r="15.2324" stroke="#3C1053" stroke-width="3.54242"/>
<circle cx="631.67" cy="69.0038" r="7.79333" fill="#6B3077"/>
<circle cx="646.851" cy="69.4255" r="3.89666" fill="#BF83CD"/>
<circle cx="616.104" cy="69.4255" r="3.89666" fill="#BF83CD"/>
<circle cx="631.87" cy="84.5524" r="3.89666" fill="#BF83CD"/>
<circle cx="596.004" cy="105.9" r="15.2324" stroke="#3C1053" stroke-width="3.54242"/>
<circle cx="596.003" cy="105.9" r="7.79333" fill="#6B3077"/>
<circle cx="611.184" cy="106.321" r="3.89666" fill="#BF83CD"/>
<circle cx="596.203" cy="121.448" r="3.89666" fill="#BF83CD"/>
<circle cx="596.425" cy="90.3332" r="3.89666" fill="#BF83CD"/>
<circle cx="631.671" cy="105.9" r="15.2324" stroke="#3C1053" stroke-width="3.54242"/>
<circle cx="631.67" cy="105.9" r="7.79333" fill="#6B3077"/>
<circle cx="646.851" cy="106.321" r="3.89666" fill="#BF83CD"/>
<circle cx="616.104" cy="106.321" r="3.89666" fill="#BF83CD"/>
<circle cx="631.87" cy="121.448" r="3.89666" fill="#BF83CD"/>
<circle cx="632.092" cy="90.3332" r="3.89666" fill="#BF83CD"/>
<circle cx="667.337" cy="105.9" r="15.2324" stroke="#3C1053" stroke-width="3.54242"/>
<circle cx="667.336" cy="105.9" r="7.79333" fill="#6B3077"/>
<circle cx="682.517" cy="106.321" r="3.89666" fill="#BF83CD"/>
<circle cx="651.77" cy="106.321" r="3.89666" fill="#BF83CD"/>
<circle cx="667.536" cy="121.448" r="3.89666" fill="#BF83CD"/>
<circle cx="667.759" cy="90.3332" r="3.89666" fill="#BF83CD"/>
<circle cx="668.566" cy="141.567" r="15.2324" stroke="#3C1053" stroke-width="3.54242"/>
<circle cx="668.566" cy="141.567" r="7.79333" fill="#6B3077"/>
<circle cx="683.746" cy="141.988" r="3.89666" fill="#BF83CD"/>
<circle cx="652.999" cy="141.988" r="3.89666" fill="#BF83CD"/>
<circle cx="668.988" cy="126" r="3.89666" fill="#BF83CD"/>
<circle cx="632.9" cy="141.567" r="15.2324" stroke="#3C1053" stroke-width="3.54242"/>
<circle cx="632.9" cy="141.567" r="7.79333" fill="#6B3077"/>
<circle cx="648.08" cy="141.988" r="3.89666" fill="#BF83CD"/>
<circle cx="617.333" cy="141.988" r="3.89666" fill="#BF83CD"/>
<circle cx="633.321" cy="126" r="3.89666" fill="#BF83CD"/>
<circle cx="703.004" cy="105.9" r="15.2324" stroke="#3C1053" stroke-width="3.54242"/>
<circle cx="703.003" cy="105.9" r="7.79333" fill="#6B3077"/>
<circle cx="687.437" cy="106.321" r="3.89666" fill="#BF83CD"/>
<circle cx="703.203" cy="121.448" r="3.89666" fill="#BF83CD"/>
<circle cx="703.426" cy="90.3332" r="3.89666" fill="#BF83CD"/>
<circle cx="667.337" cy="69.0036" r="15.2324" stroke="#3C1053" stroke-width="3.54242"/>
<circle cx="667.336" cy="69.0038" r="7.79333" fill="#6B3077"/>
<circle cx="682.517" cy="69.4255" r="3.89666" fill="#BF83CD"/>
<circle cx="651.77" cy="69.4255" r="3.89666" fill="#BF83CD"/>
<circle cx="667.536" cy="84.5524" r="3.89666" fill="#BF83CD"/>
<circle cx="703.433" cy="141.996" r="15.2324" transform="rotate(-180 703.433 141.996)" stroke="#3C1053" stroke-width="3.54242"/>
<circle cx="703.433" cy="141.996" r="7.79333" transform="rotate(-180 703.433 141.996)" fill="#6B3077"/>
<circle cx="688.52" cy="142.293" r="3.89666" transform="rotate(-180 688.52 142.293)" fill="#BF83CD"/>
<circle cx="703.233" cy="126.448" r="3.89666" transform="rotate(-180 703.233 126.448)" fill="#BF83CD"/>
<circle cx="703.433" cy="69.0036" r="15.2324" transform="rotate(90 703.433 69.0036)" stroke="#3C1053" stroke-width="3.54242"/>
<circle cx="703.433" cy="69.0038" r="7.79333" transform="rotate(90 703.433 69.0038)" fill="#6B3077"/>
<circle cx="703.73" cy="83.9167" r="3.89666" transform="rotate(90 703.73 83.9167)" fill="#BF83CD"/>
<circle cx="687.885" cy="69.2033" r="3.89666" transform="rotate(90 687.885 69.2033)" fill="#BF83CD"/>
<circle cx="596.004" cy="140.766" r="15.2324" transform="rotate(-90 596.004 140.766)" stroke="#3C1053" stroke-width="3.54242"/>
<circle cx="596.003" cy="140.766" r="7.79333" transform="rotate(-90 596.003 140.766)" fill="#6B3077"/>
<circle cx="595.706" cy="125.853" r="3.89666" transform="rotate(-90 595.706 125.853)" fill="#BF83CD"/>
<circle cx="611.552" cy="140.567" r="3.89666" transform="rotate(-90 611.552 140.567)" fill="#BF83CD"/>
<circle cx="448.81" cy="82.854" r="23.3451" transform="rotate(-135 448.81 82.854)" stroke="#3C1053" stroke-width="5.4291"/>
<circle cx="448.81" cy="82.8542" r="11.944" transform="rotate(-135 448.81 82.8542)" fill="#6B3077"/>
<circle cx="435.952" cy="101.28" r="5.97201" transform="rotate(-135 435.952 101.28)" fill="#BF83CD"/>
<circle cx="461.971" cy="101.281" r="5.97201" transform="rotate(-135 461.971 101.281)" fill="#BF83CD"/>
<circle cx="422.967" cy="131.155" r="23.3451" transform="rotate(105.156 422.967 131.155)" stroke="#3C1053" stroke-width="5.4291"/>
<circle cx="422.967" cy="131.155" r="11.944" transform="rotate(105.156 422.967 131.155)" fill="#6B3077"/>
<circle cx="445.348" cy="133.138" r="5.97201" transform="rotate(105.156 445.348 133.138)" fill="#BF83CD"/>
<circle cx="432.4" cy="110.57" r="5.97201" transform="rotate(105.156 432.4 110.57)" fill="#BF83CD"/>
<circle cx="475.392" cy="131.372" r="23.3451" transform="rotate(-13.2937 475.392 131.372)" stroke="#3C1053" stroke-width="5.4291"/>
<circle cx="475.392" cy="131.372" r="11.944" transform="rotate(-13.2937 475.392 131.372)" fill="#6B3077"/>
<circle cx="466.473" cy="110.749" r="5.97201" transform="rotate(-13.2937 466.473 110.749)" fill="#BF83CD"/>
<circle cx="452.904" cy="132.978" r="5.97201" transform="rotate(-13.2937 452.904 132.978)" fill="#BF83CD"/>
<rect x="814.42" y="47.9" width="70.68" height="96.52" stroke="#3C1053" stroke-width="3.8" stroke-dasharray="7.6 7.6"/>
<rect x="793.9" y="64.6202" width="70.68" height="96.52" fill="white" stroke="#6B3077" stroke-width="3.8" stroke-dasharray="7.6 7.6"/>
<rect x="972.5" y="45.5" width="79" height="106" stroke="#3C1053" stroke-width="5"/>
<rect x="961.5" y="58.5" width="79" height="106" fill="white" stroke="#6B3077" stroke-width="5"/>
<path d="M1043 81L1029.5 68L1017 56H1043V81Z" fill="white"/>
<path d="M1017 56L1030 68.5L1043 81H1017V56Z" fill="#6B3077"/>
<path d="M378.414 101.414C379.195 100.633 379.195 99.3668 378.414 98.5858L365.686 85.8579C364.905 85.0768 363.639 85.0768 362.858 85.8579C362.077 86.6389 362.077 87.9052 362.858 88.6863L374.172 100L362.858 111.314C362.077 112.095 362.077 113.361 362.858 114.142C363.639 114.923 364.905 114.923 365.686 114.142L378.414 101.414ZM345 102H377V98H345V102Z" fill="#9EA6B5"/>
<path d="M191.414 103.414C192.195 102.633 192.195 101.367 191.414 100.586L178.686 87.8579C177.905 87.0768 176.639 87.0768 175.858 87.8579C175.077 88.6389 175.077 89.9052 175.858 90.6863L187.172 102L175.858 113.314C175.077 114.095 175.077 115.361 175.858 116.142C176.639 116.923 177.905 116.923 178.686 116.142L191.414 103.414ZM158 104H190V100H158V104Z" fill="#9EA6B5"/>
<path d="M554.414 102.414C555.195 101.633 555.195 100.367 554.414 99.5858L541.686 86.8579C540.905 86.0768 539.639 86.0768 538.858 86.8579C538.077 87.6389 538.077 88.9052 538.858 89.6863L550.172 101L538.858 112.314C538.077 113.095 538.077 114.361 538.858 115.142C539.639 115.923 540.905 115.923 541.686 115.142L554.414 102.414ZM521 103H553V99H521V103Z" fill="#9EA6B5"/>
<path d="M773.414 104.414C774.195 103.633 774.195 102.367 773.414 101.586L760.686 88.8579C759.905 88.0768 758.639 88.0768 757.858 88.8579C757.077 89.6389 757.077 90.9052 757.858 91.6863L769.172 103L757.858 114.314C757.077 115.095 757.077 116.361 757.858 117.142C758.639 117.923 759.905 117.923 760.686 117.142L773.414 104.414ZM740 105H772V101H740V105Z" fill="#9EA6B5"/>
<path d="M940.414 107.414C941.195 106.633 941.195 105.367 940.414 104.586L927.686 91.8579C926.905 91.0768 925.639 91.0768 924.858 91.8579C924.077 92.6389 924.077 93.9052 924.858 94.6863L936.172 106L924.858 117.314C924.077 118.095 924.077 119.361 924.858 120.142C925.639 120.923 926.905 120.923 927.686 120.142L940.414 107.414ZM907 108H939V104H907V108Z" fill="#9EA6B5"/>
<circle cx="80.8563" cy="90.952" r="6.95203" fill="#6B3077"/>
<circle cx="66.952" cy="105.815" r="6.95203" fill="#3C1053"/>
<circle cx="108.952" cy="108.952" r="6.95203" fill="#F8F0F9"/>
<circle cx="87.952" cy="109.952" r="6.95203" fill="#BF83CD"/>
<circle cx="73.952" cy="131.952" r="6.95203" fill="#E3C7E9"/>
<path d="M51.5003 199H53.9963V189.88H57.2283V187.672H48.2683V189.88H51.5003V199ZM56.1225 195.112C56.1225 197.592 58.0425 199.192 60.4425 199.192C62.8425 199.192 64.7625 197.592 64.7625 195.112C64.7625 192.632 62.8425 191.032 60.4425 191.032C58.0425 191.032 56.1225 192.632 56.1225 195.112ZM58.5225 195.112C58.5225 193.944 59.2425 193.144 60.4425 193.144C61.6425 193.144 62.3625 193.944 62.3625 195.112C62.3625 196.28 61.6425 197.08 60.4425 197.08C59.2425 197.08 58.5225 196.28 58.5225 195.112ZM66.1761 199H68.5761V195.064H68.6081L71.2321 199H74.2561L71.0881 194.728L74.1761 191.224H71.2321L68.5761 194.296V186.904H66.1761V199ZM80.7468 196.424C80.3468 196.968 79.8188 197.368 79.0348 197.368C78.1068 197.368 77.4188 196.776 77.2268 195.864H82.7948V195.112C82.7948 192.632 81.3868 191.032 79.1468 191.032C76.7468 191.032 74.8268 192.632 74.8268 195.112C74.8268 197.592 76.7468 199.192 79.1468 199.192C80.3948 199.192 81.6588 198.632 82.4268 197.656L80.7468 196.424ZM77.2268 194.232C77.2908 193.48 77.8668 192.76 78.9227 192.76C79.7868 192.76 80.4108 193.432 80.3948 194.232H77.2268ZM84.2543 199H86.6543V195.128C86.6543 194.12 86.8463 193.144 88.0943 193.144C89.3263 193.144 89.3423 194.296 89.3423 195.192V199H91.7423V194.712C91.7423 192.632 91.2943 191.032 88.8623 191.032C87.6943 191.032 86.9103 191.672 86.5903 192.28H86.5583V191.224H84.2543V199ZM99.3138 192.056C98.5938 191.288 97.4578 191.032 96.4338 191.032C94.8018 191.032 93.1698 191.832 93.1698 193.656C93.1698 196.616 97.2178 195.56 97.2178 196.808C97.2178 197.224 96.6738 197.368 96.1298 197.368C95.4098 197.368 94.8818 197.064 94.4338 196.52L92.9778 198.136C93.7458 198.92 94.9457 199.192 96.0338 199.192C97.6978 199.192 99.6178 198.616 99.6178 196.632C99.6178 193.672 95.5698 194.648 95.5698 193.496C95.5698 193.032 96.0498 192.856 96.4498 192.856C97.0258 192.856 97.4898 193.08 97.8418 193.512L99.3138 192.056Z" fill="black"/>
<path d="M247.515 199H250.267L251.211 196.6H255.611L256.587 199H259.403L254.475 187.672H252.411L247.515 199ZM254.763 194.488H251.995L253.371 190.968L254.763 194.488ZM265.535 191.224H263.423V188.92H261.023V191.224H259.487V193.144H261.023V196.84C261.023 198.536 262.255 199.192 263.855 199.192C264.415 199.192 265.007 199.144 265.535 198.952V196.952C265.327 197.144 264.815 197.176 264.559 197.176C263.519 197.176 263.423 196.568 263.423 195.736V193.144H265.535V191.224ZM266.466 195.112C266.466 197.592 268.386 199.192 270.786 199.192C273.186 199.192 275.106 197.592 275.106 195.112C275.106 192.632 273.186 191.032 270.786 191.032C268.386 191.032 266.466 192.632 266.466 195.112ZM268.866 195.112C268.866 193.944 269.586 193.144 270.786 193.144C271.986 193.144 272.706 193.944 272.706 195.112C272.706 196.28 271.986 197.08 270.786 197.08C269.586 197.08 268.866 196.28 268.866 195.112ZM276.52 199H278.92V195.128C278.92 194.12 279.112 193.144 280.36 193.144C281.464 193.144 281.432 194.312 281.432 194.888V199H283.832V194.888C283.832 193.928 284.184 193.144 285.288 193.144C286.072 193.144 286.344 193.752 286.344 194.472V199H288.744V194.408C288.744 192.52 288.104 191.032 285.992 191.032C284.84 191.032 284.088 191.432 283.528 192.424C283.112 191.48 282.216 191.032 281.128 191.032C279.96 191.032 279.176 191.672 278.856 192.28H278.824V191.224H276.52V199ZM296.314 192.056C295.594 191.288 294.458 191.032 293.434 191.032C291.802 191.032 290.17 191.832 290.17 193.656C290.17 196.616 294.218 195.56 294.218 196.808C294.218 197.224 293.674 197.368 293.13 197.368C292.41 197.368 291.882 197.064 291.434 196.52L289.978 198.136C290.746 198.92 291.946 199.192 293.034 199.192C294.698 199.192 296.618 198.616 296.618 196.632C296.618 193.672 292.57 194.648 292.57 193.496C292.57 193.032 293.05 192.856 293.45 192.856C294.026 192.856 294.49 193.08 294.842 193.512L296.314 192.056Z" fill="black"/>
<path d="M409.277 199H411.773V190.312H411.805L414.669 199H416.573L419.549 190.312H419.581V199H422.077V187.672H418.317L415.693 195.064H415.661L413.053 187.672H409.277V199ZM423.794 195.112C423.794 197.592 425.714 199.192 428.114 199.192C430.514 199.192 432.434 197.592 432.434 195.112C432.434 192.632 430.514 191.032 428.114 191.032C425.714 191.032 423.794 192.632 423.794 195.112ZM426.194 195.112C426.194 193.944 426.914 193.144 428.114 193.144C429.314 193.144 430.034 193.944 430.034 195.112C430.034 196.28 429.314 197.08 428.114 197.08C426.914 197.08 426.194 196.28 426.194 195.112ZM433.88 199H436.28V186.904H433.88V199ZM443.684 196.424C443.284 196.968 442.756 197.368 441.972 197.368C441.044 197.368 440.356 196.776 440.164 195.864H445.732V195.112C445.732 192.632 444.324 191.032 442.084 191.032C439.684 191.032 437.764 192.632 437.764 195.112C437.764 197.592 439.684 199.192 442.084 199.192C443.332 199.192 444.596 198.632 445.364 197.656L443.684 196.424ZM440.164 194.232C440.228 193.48 440.804 192.76 441.86 192.76C442.724 192.76 443.348 193.432 443.332 194.232H440.164ZM454.04 192.072C453.288 191.304 452.184 191.032 451.272 191.032C448.872 191.032 446.952 192.632 446.952 195.112C446.952 197.592 448.872 199.192 451.272 199.192C452.184 199.192 453.288 198.92 454.04 198.152L452.456 196.488C452.184 196.808 451.8 197.08 451.272 197.08C450.072 197.08 449.352 196.28 449.352 195.112C449.352 193.944 450.072 193.144 451.272 193.144C451.768 193.144 452.216 193.4 452.456 193.736L454.04 192.072ZM462.399 191.224H459.999V195.096C459.999 196.104 459.807 197.08 458.559 197.08C457.327 197.08 457.311 195.928 457.311 195.032V191.224H454.911V195.512C454.911 197.592 455.359 199.192 457.791 199.192C458.959 199.192 459.743 198.552 460.063 197.944H460.095V199H462.399V191.224ZM464.13 199H466.53V186.904H464.13V199ZM473.934 196.424C473.534 196.968 473.006 197.368 472.222 197.368C471.294 197.368 470.606 196.776 470.414 195.864H475.982V195.112C475.982 192.632 474.574 191.032 472.334 191.032C469.934 191.032 468.014 192.632 468.014 195.112C468.014 197.592 469.934 199.192 472.334 199.192C473.582 199.192 474.846 198.632 475.614 197.656L473.934 196.424ZM470.414 194.232C470.478 193.48 471.054 192.76 472.11 192.76C472.974 192.76 473.598 193.432 473.582 194.232H470.414ZM483.314 192.056C482.594 191.288 481.458 191.032 480.434 191.032C478.802 191.032 477.17 191.832 477.17 193.656C477.17 196.616 481.218 195.56 481.218 196.808C481.218 197.224 480.674 197.368 480.13 197.368C479.41 197.368 478.882 197.064 478.434 196.52L476.978 198.136C477.746 198.92 478.946 199.192 480.034 199.192C481.698 199.192 483.618 198.616 483.618 196.632C483.618 193.672 479.57 194.648 479.57 193.496C479.57 193.032 480.05 192.856 480.45 192.856C481.026 192.856 481.49 193.08 481.842 193.512L483.314 192.056Z" fill="black"/>
<path d="M607.966 193.336C607.966 196.968 610.542 199.288 614.078 199.288C617.614 199.288 620.19 196.968 620.19 193.336C620.19 189.704 617.614 187.384 614.078 187.384C610.542 187.384 607.966 189.704 607.966 193.336ZM610.558 193.336C610.558 191.224 611.95 189.688 614.078 189.688C616.206 189.688 617.598 191.224 617.598 193.336C617.598 195.448 616.206 196.984 614.078 196.984C611.95 196.984 610.558 195.448 610.558 193.336ZM621.582 199H623.982V195.752C623.982 194.2 624.206 193.144 626.03 193.144C626.382 193.144 626.718 193.208 627.054 193.304V191.112C626.83 191.048 626.526 191.032 626.254 191.032C625.198 191.032 624.526 191.528 624.014 192.472H623.982V191.224H621.582V199ZM636.258 191.224H634.05V192.248H634.018C633.65 191.688 632.722 191.032 631.362 191.032C629.154 191.032 627.81 193.016 627.81 195.08C627.81 197.432 629.33 199.096 631.634 199.096C632.354 199.096 633.282 198.824 633.826 198.072H633.858V198.824C633.858 199.928 633.17 200.728 631.714 200.728C630.738 200.728 629.922 200.344 629.186 199.72L627.858 201.704C628.978 202.6 630.386 202.84 631.762 202.84C634.77 202.84 636.258 201.272 636.258 198.344V191.224ZM630.21 195.064C630.21 194.056 631.042 193.144 632.13 193.144C633.218 193.144 634.05 194.056 634.05 195.064C634.05 196.072 633.218 196.984 632.13 196.984C631.042 196.984 630.21 196.072 630.21 195.064ZM643.056 199H645.264V195.048C645.264 192.456 644.512 191.032 641.712 191.032C640.448 191.032 639.168 191.448 638.288 192.28L639.568 193.592C640.08 193.016 640.736 192.664 641.52 192.664C642.352 192.664 643.056 193.208 643.056 194.056C641.056 194.056 637.792 194.104 637.792 196.792C637.792 198.36 639.104 199.192 640.56 199.192C641.536 199.192 642.496 198.856 643.024 198.024H643.056V199ZM643.056 195.592V196.104C643.056 197.064 642.176 197.56 641.232 197.56C640.704 197.56 640.096 197.288 640.096 196.712C640.096 195.656 641.728 195.592 642.464 195.592H643.056ZM646.77 199H649.17V195.128C649.17 194.12 649.362 193.144 650.61 193.144C651.842 193.144 651.858 194.296 651.858 195.192V199H654.258V194.712C654.258 192.632 653.81 191.032 651.378 191.032C650.21 191.032 649.426 191.672 649.106 192.28H649.074V191.224H646.77V199ZM655.989 199H658.389V191.224H655.989V199ZM655.797 188.776C655.797 189.544 656.421 190.168 657.189 190.168C657.957 190.168 658.581 189.544 658.581 188.776C658.581 188.008 657.957 187.384 657.189 187.384C656.421 187.384 655.797 188.008 655.797 188.776ZM665.986 192.056C665.266 191.288 664.13 191.032 663.106 191.032C661.474 191.032 659.842 191.832 659.842 193.656C659.842 196.616 663.89 195.56 663.89 196.808C663.89 197.224 663.346 197.368 662.802 197.368C662.082 197.368 661.554 197.064 661.106 196.52L659.65 198.136C660.418 198.92 661.618 199.192 662.706 199.192C664.37 199.192 666.29 198.616 666.29 196.632C666.29 193.672 662.242 194.648 662.242 193.496C662.242 193.032 662.722 192.856 663.122 192.856C663.698 192.856 664.162 193.08 664.514 193.512L665.986 192.056ZM667.52 199H669.92V195.128C669.92 194.12 670.112 193.144 671.36 193.144C672.464 193.144 672.432 194.312 672.432 194.888V199H674.832V194.888C674.832 193.928 675.184 193.144 676.288 193.144C677.072 193.144 677.344 193.752 677.344 194.472V199H679.744V194.408C679.744 192.52 679.104 191.032 676.992 191.032C675.84 191.032 675.088 191.432 674.528 192.424C674.112 191.48 673.216 191.032 672.128 191.032C670.96 191.032 670.176 191.672 669.856 192.28H669.824V191.224H667.52V199ZM687.314 192.056C686.594 191.288 685.458 191.032 684.434 191.032C682.802 191.032 681.17 191.832 681.17 193.656C681.17 196.616 685.218 195.56 685.218 196.808C685.218 197.224 684.674 197.368 684.13 197.368C683.41 197.368 682.882 197.064 682.434 196.52L680.978 198.136C681.746 198.92 682.946 199.192 684.034 199.192C685.698 199.192 687.618 198.616 687.618 196.632C687.618 193.672 683.57 194.648 683.57 193.496C683.57 193.032 684.05 192.856 684.45 192.856C685.026 192.856 685.49 193.08 685.842 193.512L687.314 192.056Z" fill="black"/>
<path d="M804.891 199H807.387V189.88H810.619V187.672H801.659V189.88H804.891V199ZM815.481 196.424C815.081 196.968 814.553 197.368 813.769 197.368C812.841 197.368 812.153 196.776 811.961 195.864H817.529V195.112C817.529 192.632 816.121 191.032 813.881 191.032C811.481 191.032 809.561 192.632 809.561 195.112C809.561 197.592 811.481 199.192 813.881 199.192C815.129 199.192 816.393 198.632 817.161 197.656L815.481 196.424ZM811.961 194.232C812.025 193.48 812.601 192.76 813.657 192.76C814.521 192.76 815.145 193.432 815.129 194.232H811.961ZM818.989 199H821.389V195.128C821.389 194.12 821.581 193.144 822.829 193.144C823.933 193.144 823.901 194.312 823.901 194.888V199H826.301V194.888C826.301 193.928 826.653 193.144 827.757 193.144C828.541 193.144 828.813 193.752 828.813 194.472V199H831.213V194.408C831.213 192.52 830.573 191.032 828.461 191.032C827.309 191.032 826.557 191.432 825.997 192.424C825.581 191.48 824.685 191.032 823.597 191.032C822.429 191.032 821.645 191.672 821.325 192.28H821.293V191.224H818.989V199ZM833.135 202.648H835.535V198.168H835.567C836.111 198.92 837.039 199.192 838.031 199.192C840.239 199.192 841.583 197.208 841.583 195.048C841.583 192.696 840.062 191.032 837.759 191.032C836.671 191.032 835.743 191.688 835.375 192.248H835.343V191.224H833.135V202.648ZM835.343 195.112C835.343 193.944 836.062 193.144 837.263 193.144C838.463 193.144 839.183 193.944 839.183 195.112C839.183 196.28 838.463 197.08 837.263 197.08C836.062 197.08 835.343 196.28 835.343 195.112ZM843.021 199H845.421V186.904H843.021V199ZM852.025 199H854.233V195.048C854.233 192.456 853.481 191.032 850.681 191.032C849.417 191.032 848.137 191.448 847.257 192.28L848.537 193.592C849.049 193.016 849.705 192.664 850.489 192.664C851.321 192.664 852.025 193.208 852.025 194.056C850.025 194.056 846.761 194.104 846.761 196.792C846.761 198.36 848.073 199.192 849.529 199.192C850.505 199.192 851.465 198.856 851.993 198.024H852.025V199ZM852.025 195.592V196.104C852.025 197.064 851.145 197.56 850.201 197.56C849.673 197.56 849.065 197.288 849.065 196.712C849.065 195.656 850.697 195.592 851.433 195.592H852.025ZM861.035 191.224H858.923V188.92H856.523V191.224H854.987V193.144H856.523V196.84C856.523 198.536 857.755 199.192 859.355 199.192C859.915 199.192 860.507 199.144 861.035 198.952V196.952C860.827 197.144 860.315 197.176 860.059 197.176C859.019 197.176 858.923 196.568 858.923 195.736V193.144H861.035V191.224ZM867.934 196.424C867.534 196.968 867.006 197.368 866.222 197.368C865.294 197.368 864.606 196.776 864.414 195.864H869.982V195.112C869.982 192.632 868.574 191.032 866.334 191.032C863.934 191.032 862.014 192.632 862.014 195.112C862.014 197.592 863.934 199.192 866.334 199.192C867.582 199.192 868.846 198.632 869.614 197.656L867.934 196.424ZM864.414 194.232C864.478 193.48 865.054 192.76 866.11 192.76C866.974 192.76 867.598 193.432 867.582 194.232H864.414ZM877.314 192.056C876.594 191.288 875.458 191.032 874.434 191.032C872.802 191.032 871.17 191.832 871.17 193.656C871.17 196.616 875.218 195.56 875.218 196.808C875.218 197.224 874.674 197.368 874.13 197.368C873.41 197.368 872.882 197.064 872.434 196.52L870.978 198.136C871.746 198.92 872.946 199.192 874.034 199.192C875.698 199.192 877.618 198.616 877.618 196.632C877.618 193.672 873.57 194.648 873.57 193.496C873.57 193.032 874.05 192.856 874.45 192.856C875.026 192.856 875.49 193.08 875.842 193.512L877.314 192.056Z" fill="black"/>
<path d="M985.808 199H988.304V194.584H990.128C992.512 194.584 994.32 193.768 994.32 191.112C994.32 188.424 992.368 187.672 990.016 187.672H985.808V199ZM988.304 189.784H989.584C990.544 189.784 991.728 189.944 991.728 191.112C991.728 192.168 990.848 192.472 989.968 192.472H988.304V189.784ZM1000.46 199H1002.67V195.048C1002.67 192.456 1001.92 191.032 999.118 191.032C997.854 191.032 996.574 191.448 995.694 192.28L996.974 193.592C997.486 193.016 998.142 192.664 998.926 192.664C999.758 192.664 1000.46 193.208 1000.46 194.056C998.462 194.056 995.198 194.104 995.198 196.792C995.198 198.36 996.51 199.192 997.966 199.192C998.942 199.192 999.902 198.856 1000.43 198.024H1000.46V199ZM1000.46 195.592V196.104C1000.46 197.064 999.582 197.56 998.638 197.56C998.11 197.56 997.502 197.288 997.502 196.712C997.502 195.656 999.134 195.592 999.87 195.592H1000.46ZM1012.34 191.224H1010.13V192.248H1010.1C1009.73 191.688 1008.8 191.032 1007.44 191.032C1005.23 191.032 1003.89 193.016 1003.89 195.08C1003.89 197.432 1005.41 199.096 1007.71 199.096C1008.43 199.096 1009.36 198.824 1009.9 198.072H1009.94V198.824C1009.94 199.928 1009.25 200.728 1007.79 200.728C1006.82 200.728 1006 200.344 1005.26 199.72L1003.94 201.704C1005.06 202.6 1006.46 202.84 1007.84 202.84C1010.85 202.84 1012.34 201.272 1012.34 198.344V191.224ZM1006.29 195.064C1006.29 194.056 1007.12 193.144 1008.21 193.144C1009.3 193.144 1010.13 194.056 1010.13 195.064C1010.13 196.072 1009.3 196.984 1008.21 196.984C1007.12 196.984 1006.29 196.072 1006.29 195.064ZM1019.93 196.424C1019.53 196.968 1019.01 197.368 1018.22 197.368C1017.29 197.368 1016.61 196.776 1016.41 195.864H1021.98V195.112C1021.98 192.632 1020.57 191.032 1018.33 191.032C1015.93 191.032 1014.01 192.632 1014.01 195.112C1014.01 197.592 1015.93 199.192 1018.33 199.192C1019.58 199.192 1020.85 198.632 1021.61 197.656L1019.93 196.424ZM1016.41 194.232C1016.48 193.48 1017.05 192.76 1018.11 192.76C1018.97 192.76 1019.6 193.432 1019.58 194.232H1016.41ZM1029.31 192.056C1028.59 191.288 1027.46 191.032 1026.43 191.032C1024.8 191.032 1023.17 191.832 1023.17 193.656C1023.17 196.616 1027.22 195.56 1027.22 196.808C1027.22 197.224 1026.67 197.368 1026.13 197.368C1025.41 197.368 1024.88 197.064 1024.43 196.52L1022.98 198.136C1023.75 198.92 1024.95 199.192 1026.03 199.192C1027.7 199.192 1029.62 198.616 1029.62 196.632C1029.62 193.672 1025.57 194.648 1025.57 193.496C1025.57 193.032 1026.05 192.856 1026.45 192.856C1027.03 192.856 1027.49 193.08 1027.84 193.512L1029.31 192.056Z" fill="black"/>
</svg>
