<svg width="77" height="71" viewBox="0 0 77 71" fill="none" xmlns="http://www.w3.org/2000/svg">
<path fill-rule="evenodd" clip-rule="evenodd" d="M55.1042 24.4495C52.8194 24.7786 50.528 25.1853 48.2278 25.672C33.8818 28.6811 22.282 34.1822 15.1201 40.5531C11.5193 43.44 8.86539 47.4694 7.54064 52.0724C8.15578 47.5117 10.9898 42.951 15.6913 38.7664C23.2048 32.0429 35.4636 26.3067 50.5346 23.133L52.4239 22.7569L51.655 22.3102L50.249 22.5923C34.8705 25.813 22.5017 31.6667 14.8344 38.5078C10.9898 41.5875 8.15798 45.8919 6.74975 50.8006C7.40882 45.9366 10.4626 41.0703 15.5375 36.6976C22.8752 30.1386 34.4311 24.4495 48.6891 20.9232L47.7445 20.5235C33.5303 24.1204 22.0184 29.9271 14.6367 36.439C10.4999 39.6527 7.4242 44.1875 5.849 49.3924C6.55202 44.1969 9.82545 38.978 15.186 34.2057C23.8353 27.1483 33.7302 22.0398 44.2733 19.1835L43.1089 18.8309C32.6472 21.7742 22.8401 26.9203 14.2632 33.9706C9.84962 37.4969 6.60255 42.4385 4.9922 48.0759C5.73916 42.5043 9.25425 36.9562 14.9663 31.8313C22.2447 25.7237 30.47 21.0266 39.2643 17.9611L37.7924 17.726C29.1606 20.815 21.0913 25.4651 13.9337 31.4787C9.22349 35.2424 5.75234 40.5131 4.02555 46.5243C4.83842 40.5766 8.5732 34.6288 14.7026 29.1513C20.4278 24.2896 26.7748 20.3308 33.5523 17.3969H31.6629C25.1666 20.3331 19.0833 24.2168 13.5822 28.9397C7.91412 34.0176 4.22328 39.5187 2.993 45.0433C3.8498 38.6959 7.84821 32.325 14.417 26.4713C18.3056 23.0648 22.5171 20.1027 26.9835 17.6319L25.3138 17.8435L24.5229 17.9611C20.5179 20.2132 16.7238 22.865 13.1868 25.8835C7.14519 31.3846 3.21269 37.2618 1.89453 43.1861C2.81724 36.392 7.10125 29.5744 14.1095 23.2976C15.7132 21.8635 17.5806 20.4295 19.4041 19.0425C18.1936 19.4139 17.005 19.8629 15.845 20.3825C14.7422 21.076 13.7316 21.9223 12.8352 22.8979C-4.56445 37.4969 -4.38869 58.3963 14.0655 66.2953L13.6701 65.8486C13.2021 65.3149 12.7693 64.7907 12.3739 64.2735L11.9565 63.7093C11.5391 63.1216 11.1656 62.5338 10.836 61.9673L10.4626 61.3114C10.1396 60.6955 9.85401 60.0607 9.60575 59.4072L9.32015 58.6314C9.08948 57.9191 8.91372 57.1879 8.79289 56.4451C8.81486 56.1253 8.76872 55.8033 8.66107 55.5023C8.60176 54.7853 8.60176 54.0613 8.66107 53.3419C8.60615 52.9587 8.60615 52.5708 8.66107 52.19C8.77092 51.4471 8.94009 50.716 9.16637 50.0036C9.29599 49.564 9.45197 49.1338 9.62772 48.7106C9.98143 47.9043 10.3791 47.1191 10.8141 46.3598C12.174 44.1828 13.859 42.2622 15.8011 40.6706C25.4764 33.2019 36.6214 28.1992 48.3816 26.0481C50.7982 25.5309 53.2148 25.1313 55.6314 24.7786L54.9943 24.332" fill="#702F73"/>
<path fill-rule="evenodd" clip-rule="evenodd" d="M12.5499 45.0669C23.5346 41.7522 48.2061 41.376 52.2265 56.0902C45.9389 52.4228 38.5308 51.6259 31.6852 53.8827C24.8308 56.1067 18.7277 60.4111 14.1098 66.2719L13.6704 65.8487C18.3191 59.8563 24.5298 55.479 31.5095 53.2715C35.9275 51.8986 40.5828 51.6423 45.1084 52.5192C39.9501 51.2427 34.5676 51.412 29.4883 53.0129C22.9458 55.0652 17.0383 58.9536 12.3742 64.2736L11.9568 63.7094C16.689 58.3377 22.6712 54.4093 29.2906 52.3311C34.0491 50.836 39.0669 50.5539 43.9441 51.5083C38.4298 50.1425 32.6804 50.3211 27.2474 52.0255C21.1751 53.9321 15.6081 57.3385 10.9901 61.9674L10.6166 61.3115C15.3071 56.6568 20.951 53.2362 27.0936 51.3203C32.1444 49.7452 37.4697 49.449 42.6479 50.4504C36.7469 48.9976 30.5977 49.1904 24.7868 51.0147C19.2945 52.7143 14.1779 55.5777 9.73787 59.4308L9.45227 58.655C13.923 54.8184 19.0616 51.9668 24.5672 50.2624C29.9386 48.6168 35.5913 48.3205 41.0881 49.3925C34.7763 47.8269 28.1921 48.029 21.9748 49.9803C17.2843 51.3602 12.8312 53.5419 8.79319 56.4452C8.81516 56.1255 8.76903 55.8034 8.66138 55.5025C12.7015 52.5827 17.1503 50.3682 21.843 48.9435C27.6231 47.1474 33.7152 46.8089 39.6381 47.9562C32.8891 46.2894 25.8546 46.508 19.2066 48.5932C15.5575 49.7287 12.0425 51.3062 8.72728 53.295C8.69433 52.9095 8.7163 52.5216 8.79319 52.1431C12.0073 50.2647 15.4038 48.7672 18.921 47.6764C25.101 45.751 31.6127 45.389 37.9465 46.6185C30.7251 44.8318 23.1985 45.0669 16.087 47.3003C13.7583 48.0149 11.4822 48.913 9.27652 49.9803C9.40833 49.5383 9.56212 49.1081 9.73787 48.6873C11.7261 47.7634 13.7648 46.9782 15.8453 46.3364C22.4603 44.2747 29.4334 43.8891 36.2109 45.208C28.4887 43.299 20.4391 43.5482 12.8355 45.9367L10.7704 46.6185L10.9901 46.501C11.2164 46.1084 11.4669 45.7299 11.7371 45.3725L12.5499 45.0669Z" fill="#702F73"/>
<path fill-rule="evenodd" clip-rule="evenodd" d="M65.21 12.2246C56.4222 2.20983 49.8315 0.329124 47.6345 0C59.3178 7.36533 63.6853 23.1492 57.6305 36.1331C55.6599 40.2401 53.1115 43.9992 50.0731 47.2763L50.6663 48.0521C53.909 44.6128 56.6244 40.6445 58.707 36.2977C61.4576 30.8013 62.3781 24.468 61.3214 18.3369C63.0218 25.2767 62.1892 32.6491 58.9926 38.9542C57.1055 42.899 54.7108 46.5381 51.8746 49.7683L52.4458 50.7086C55.5303 47.2881 58.1293 43.3974 60.157 39.1658C63.0833 33.3003 64.0676 26.5462 62.9471 20.006C64.7508 27.4231 63.8566 35.2962 60.4426 42.0338C58.5796 45.934 56.2465 49.5543 53.5003 52.8009C53.6761 53.177 53.8365 53.5602 53.9836 53.9528C57.0484 50.4383 59.6363 46.4841 61.6729 42.1984C64.8189 35.9121 65.8712 28.6644 64.6607 21.6517C66.5786 29.5694 65.6208 37.9692 61.9805 45.1605C60.0933 49.2323 57.7228 53.0242 54.9283 56.4448C54.9283 56.9385 55.148 57.4321 55.2359 57.9493C58.4961 54.2185 61.2555 50.0175 63.4304 45.4661C66.7456 38.7379 67.8287 31.0058 66.5061 23.5324C68.613 32.0285 67.6156 41.0676 63.716 48.8044C61.4928 53.4639 58.6829 57.773 55.3677 61.6167C55.337 62.3431 55.2645 63.0625 55.148 63.7795C59.1442 59.4516 62.4989 54.4982 65.1001 49.0865C68.7009 41.8951 69.9092 33.6036 68.5273 25.5776C70.7396 34.6474 69.6478 44.2766 65.4736 52.5188C62.2968 59.0707 58.1007 64.9949 53.0609 70.0329C53.0609 70.221 53.6102 70.2915 54.7306 70.1975C59.6869 65.1619 63.8237 59.2729 66.9675 52.7774C70.8165 45.0876 72.1105 36.2272 70.6364 27.6464C72.9805 37.3509 71.7942 47.6431 67.319 56.4448C65.1462 61.0455 62.4616 65.3476 59.3222 69.2571C60.135 68.9985 61.0138 68.6929 61.8926 68.3403C64.608 64.781 66.9565 60.9185 68.9008 56.8209C73.0134 48.5975 74.3931 39.1234 72.8113 29.9503C75.3444 40.3342 74.0943 51.3598 69.3182 60.7939C68.5119 62.456 67.6485 64.1392 66.7258 65.8483C67.8968 65.0772 69.0062 64.205 70.0432 63.2388C70.3947 62.5571 70.7462 61.8518 71.0758 61.1465C78.9627 44.2437 77.6665 26.612 65.21 12.2951" fill="#702F73"/>
</svg>
