<svg width="613" height="345" viewBox="0 0 613 345" fill="none" xmlns="http://www.w3.org/2000/svg">
<path d="M209 120.652C209 114.217 214.217 109 220.652 109H410.261C416.696 109 421.913 114.217 421.913 120.652V164.348C421.913 170.783 416.696 176 410.261 176H220.652C214.217 176 209 170.783 209 164.348V120.652Z" fill="#6B3077"/>
<path d="M245.798 148.5H255.749V145.843H248.734V132.001H245.798V148.5ZM264.617 148.5H267.134V142.068C267.134 140.483 267.134 137.034 262.357 137.034C260.585 137.034 258.838 137.57 257.603 138.829L259.071 140.297C259.816 139.598 260.888 139.132 262.054 139.132C263.545 139.132 264.617 139.854 264.617 141.229V141.532H263.918C261.121 141.532 256.88 141.788 256.88 145.424C256.88 147.638 258.884 148.78 260.958 148.78C262.45 148.78 263.755 148.22 264.547 146.962H264.617V148.5ZM264.454 144.119C264.454 145.68 263.545 146.682 261.634 146.682C260.725 146.682 259.677 146.239 259.677 145.214C259.677 143.606 262.333 143.49 263.871 143.49H264.454V144.119ZM270.143 148.5H272.939V142.511C272.939 141.905 273.312 139.691 275.946 139.691C276.388 139.691 276.831 139.784 277.297 139.901V137.197C276.971 137.104 276.645 137.034 276.295 137.034C274.827 137.034 273.592 137.803 272.986 139.085H272.939V137.314H270.143V148.5ZM287.647 137.314V138.992H287.6C286.784 137.64 285.316 137.034 283.755 137.034C280.306 137.034 278.232 139.598 278.232 142.907C278.232 146.076 280.446 148.64 283.801 148.64C285.2 148.64 286.644 148.104 287.46 147.009H287.507V147.824C287.507 150.038 286.668 151.576 283.964 151.576C282.403 151.576 281.238 150.994 280.119 149.968L278.441 152.252C280.026 153.65 281.914 154.093 283.988 154.093C288.346 154.093 290.303 151.53 290.303 147.498V137.314H287.647ZM284.337 139.551C286.365 139.551 287.647 140.903 287.647 142.837C287.647 144.701 286.388 146.123 284.314 146.123C282.426 146.123 281.028 144.655 281.028 142.884C281.028 140.903 282.38 139.551 284.337 139.551ZM304.237 143.886V143.117C304.237 139.225 302.116 137.034 298.993 137.034C295.614 137.034 292.911 139.388 292.911 142.907C292.911 146.426 295.614 148.78 298.993 148.78C300.764 148.78 302.419 148.15 303.724 146.542L301.72 145.028C301.021 145.89 300.112 146.542 298.713 146.542C297.152 146.542 295.894 145.54 295.707 143.886H304.237ZM295.707 141.788C295.917 140.18 296.942 139.132 298.597 139.132C300.345 139.132 301.417 140.157 301.44 141.788H295.707ZM314.004 148.5H319.946C323.069 148.5 326.192 147.381 326.192 143.793C326.192 141.672 324.7 140.041 322.626 139.807V139.761C324.328 139.248 325.493 138.013 325.493 136.149C325.493 133.142 322.929 132.001 320.436 132.001H314.004V148.5ZM316.94 134.517H319.364C321.578 134.517 322.556 135.217 322.556 136.638C322.556 137.873 321.578 138.712 319.62 138.712H316.94V134.517ZM316.94 141.229H319.76C322.137 141.229 323.256 141.835 323.256 143.559C323.256 145.727 321.158 145.983 319.643 145.983H316.94V141.229ZM339.066 137.314H336.27V143.42C336.27 144.911 335.547 146.263 333.706 146.263C331.749 146.263 331.655 144.212 331.655 142.977V137.314H328.859V144.375C328.859 146.659 329.931 148.78 332.937 148.78C334.801 148.78 335.85 147.824 336.363 146.706H336.409V148.5H339.066V137.314ZM343.243 139.691V144.818C343.243 147.451 343.942 148.78 346.901 148.78C347.554 148.78 348.533 148.686 349.115 148.407V146.053C348.766 146.309 348.09 146.403 347.601 146.403C346.365 146.403 346.039 145.703 346.039 144.585V139.691H349.115V137.314H346.039V134.075H343.243V137.314H340.936V139.691H343.243ZM352.3 139.691V144.818C352.3 147.451 353 148.78 355.959 148.78C356.612 148.78 357.591 148.686 358.173 148.407V146.053C357.824 146.309 357.148 146.403 356.658 146.403C355.423 146.403 355.097 145.703 355.097 144.585V139.691H358.173V137.314H355.097V134.075H352.3V137.314H349.993V139.691H352.3ZM359.797 142.907C359.797 146.426 362.5 148.78 365.879 148.78C369.258 148.78 371.962 146.426 371.962 142.907C371.962 139.388 369.258 137.034 365.879 137.034C362.5 137.034 359.797 139.388 359.797 142.907ZM362.593 142.907C362.593 141.159 363.828 139.551 365.879 139.551C367.93 139.551 369.165 141.159 369.165 142.907C369.165 144.655 367.93 146.263 365.879 146.263C363.828 146.263 362.593 144.655 362.593 142.907ZM374.58 148.5H377.376V142.394C377.376 140.903 378.099 139.551 379.94 139.551C381.898 139.551 381.991 141.602 381.991 142.837V148.5H384.787V141.439C384.787 139.155 383.715 137.034 380.709 137.034C378.845 137.034 377.796 137.99 377.283 139.108H377.237V137.314H374.58V148.5Z" fill="white"/>
<path d="M220.652 110.457H410.261V107.543H220.652V110.457ZM420.457 120.652V164.348H423.37V120.652H420.457ZM410.261 174.543H220.652V177.457H410.261V174.543ZM210.457 164.348V120.652H207.543V164.348H210.457ZM220.652 174.543C215.021 174.543 210.457 169.979 210.457 164.348H207.543C207.543 171.588 213.412 177.457 220.652 177.457V174.543ZM420.457 164.348C420.457 169.979 415.892 174.543 410.261 174.543V177.457C417.501 177.457 423.37 171.588 423.37 164.348H420.457ZM410.261 110.457C415.892 110.457 420.457 115.021 420.457 120.652H423.37C423.37 113.412 417.501 107.543 410.261 107.543V110.457ZM220.652 107.543C213.412 107.543 207.543 113.412 207.543 120.652H210.457C210.457 115.021 215.021 110.457 220.652 110.457V107.543Z" fill="#6B3077"/>
<g clip-path="url(#clip0_549_43235)">
<line x1="423" y1="117.5" x2="463" y2="117.5" stroke="#F74480"/>
<line x1="423" y1="126.5" x2="415" y2="126.5" stroke="#F74480"/>
<line x1="423" y1="109.5" x2="415" y2="109.5" stroke="#F74480"/>
<line x1="422.5" y1="127" x2="422.5" y2="109" stroke="#F74480"/>
</g>
<path d="M478.742 118.786V121.684L477.426 123H475.9V124.54H474.92V123H473.198L471.91 121.712V120.816H472.96V121.362L473.632 122.048H474.92V118.45H473.226L471.938 117.162V114.488L473.226 113.2H474.92V111.66H475.9V113.2H477.342L478.63 114.488V115.398H477.594V114.838L476.894 114.152H475.9V117.498H477.454L478.742 118.786ZM474.92 117.498V114.152H473.688L472.988 114.838V116.812L473.688 117.498H474.92ZM477.692 119.136L476.992 118.45H475.9V122.048H476.992L477.692 121.334V119.136ZM487.006 116.028V124.778L485.732 126.052H482.274L481.196 124.974V124.12H482.232V124.638L482.722 125.128H485.27L485.97 124.442V121.838L484.682 123H482.134L480.846 121.712V117.316L482.134 116.028H484.78L485.998 117.246V116.028H487.006ZM485.97 118.422L484.5 116.952H482.582L481.882 117.638V121.39L482.582 122.076H484.514L485.97 120.718V118.422ZM489.317 121.712V117.316L490.605 116.028H494.119L495.421 117.316V119.822H490.353V121.39L491.053 122.076H493.671L494.371 121.39V120.858H495.407V121.712L494.119 123H490.605L489.317 121.712ZM494.385 118.926V117.638L493.685 116.952H491.053L490.353 117.638V118.926H494.385ZM497.725 113.004H498.761V123H497.725V113.004ZM501.006 118.982H505.094V119.906H501.006V118.982ZM506.919 121.852V120.984H507.955V121.558L508.515 122.104H511.091L511.651 121.558V120.48L511.091 119.92H508.081L506.975 118.814V117.176L508.123 116.028H511.399L512.547 117.176V118.044H511.511V117.47L510.951 116.924H508.571L508.011 117.47V118.492L508.571 119.052H511.539L512.687 120.2V121.852L511.539 123H508.067L506.919 121.852ZM514.783 116.028H515.791V117.274L517.037 116.028H519.655L520.943 117.316V121.712L519.655 123H516.967L515.819 121.992V125.968H514.783V116.028ZM519.207 122.076L519.907 121.39V117.638L519.207 116.952H517.317L515.819 118.45V120.858L517.163 122.076H519.207ZM523.044 121.852V120.074L524.192 118.94H527.916V117.61L527.216 116.924H524.836L524.136 117.61V118.184H523.1V117.316L524.388 116.028H527.65L528.938 117.316V123H527.944V121.768L526.656 123H524.192L523.044 121.852ZM526.446 122.104L527.916 120.69V119.836H524.64L524.08 120.382V121.558L524.64 122.104H526.446ZM531.175 121.712V117.316L532.463 116.028H535.823L537.111 117.316V118.17H536.075V117.638L535.375 116.952H532.911L532.211 117.638V121.39L532.911 122.076H535.375L536.075 121.39V120.858H537.111V121.712L535.823 123H532.463L531.175 121.712ZM539.003 121.712V117.316L540.291 116.028H543.805L545.107 117.316V119.822H540.039V121.39L540.739 122.076H543.357L544.057 121.39V120.858H545.093V121.712L543.805 123H540.291L539.003 121.712ZM544.071 118.926V117.638L543.371 116.952H540.739L540.039 117.638V118.926H544.071ZM547.341 116.028H548.349V117.274L549.595 116.028H551.401V116.952H549.861L548.377 118.436V123H547.341V116.028ZM552.798 118.982H556.886V119.906H552.798V118.982ZM558.767 121.124L563.891 116.056V114.838L563.191 114.152H560.475L559.775 114.838V115.58H558.711V114.488L559.999 113.2H563.667L564.955 114.488V116.364L559.831 121.432V122.048H565.011V123H558.767V121.124Z" fill="#F74480"/>
<g clip-path="url(#clip1_549_43235)">
<line x1="405.5" y1="177" x2="405.5" y2="217" stroke="#F74480"/>
<line x1="387.5" y1="177" x2="387.5" y2="169" stroke="#F74480"/>
<line x1="421.5" y1="177" x2="421.5" y2="169" stroke="#F74480"/>
<line x1="387" y1="176.5" x2="422" y2="176.5" stroke="#F74480"/>
</g>
<path d="M364.683 235.786V238.684L363.367 240H361.841V241.54H360.861V240H359.139L357.851 238.712V237.816H358.901V238.362L359.573 239.048H360.861V235.45H359.167L357.879 234.162V231.488L359.167 230.2H360.861V228.66H361.841V230.2H363.283L364.571 231.488V232.398H363.535V231.838L362.835 231.152H361.841V234.498H363.395L364.683 235.786ZM360.861 234.498V231.152H359.629L358.929 231.838V233.812L359.629 234.498H360.861ZM363.633 236.136L362.933 235.45H361.841V239.048H362.933L363.633 238.334V236.136ZM372.947 233.028V241.778L371.673 243.052H368.215L367.137 241.974V241.12H368.173V241.638L368.663 242.128H371.211L371.911 241.442V238.838L370.623 240H368.075L366.787 238.712V234.316L368.075 233.028H370.721L371.939 234.246V233.028H372.947ZM371.911 235.422L370.441 233.952H368.523L367.823 234.638V238.39L368.523 239.076H370.455L371.911 237.718V235.422ZM375.258 238.712V234.316L376.546 233.028H380.06L381.362 234.316V236.822H376.294V238.39L376.994 239.076H379.612L380.312 238.39V237.858H381.348V238.712L380.06 240H376.546L375.258 238.712ZM380.326 235.926V234.638L379.626 233.952H376.994L376.294 234.638V235.926H380.326ZM383.666 230.004H384.702V240H383.666V230.004ZM386.947 235.982H391.035V236.906H386.947V235.982ZM392.86 238.852V237.984H393.896V238.558L394.456 239.104H397.032L397.592 238.558V237.48L397.032 236.92H394.022L392.916 235.814V234.176L394.064 233.028H397.34L398.488 234.176V235.044H397.452V234.47L396.892 233.924H394.512L393.952 234.47V235.492L394.512 236.052H397.48L398.628 237.2V238.852L397.48 240H394.008L392.86 238.852ZM400.724 233.028H401.732V234.274L402.978 233.028H405.596L406.884 234.316V238.712L405.596 240H402.908L401.76 238.992V242.968H400.724V233.028ZM405.148 239.076L405.848 238.39V234.638L405.148 233.952H403.258L401.76 235.45V237.858L403.104 239.076H405.148ZM408.985 238.852V237.074L410.133 235.94H413.857V234.61L413.157 233.924H410.777L410.077 234.61V235.184H409.041V234.316L410.329 233.028H413.591L414.879 234.316V240H413.885V238.768L412.597 240H410.133L408.985 238.852ZM412.387 239.104L413.857 237.69V236.836H410.581L410.021 237.382V238.558L410.581 239.104H412.387ZM417.116 238.712V234.316L418.404 233.028H421.764L423.052 234.316V235.17H422.016V234.638L421.316 233.952H418.852L418.152 234.638V238.39L418.852 239.076H421.316L422.016 238.39V237.858H423.052V238.712L421.764 240H418.404L417.116 238.712ZM424.944 238.712V234.316L426.232 233.028H429.746L431.048 234.316V236.822H425.98V238.39L426.68 239.076H429.298L429.998 238.39V237.858H431.034V238.712L429.746 240H426.232L424.944 238.712ZM430.012 235.926V234.638L429.312 233.952H426.68L425.98 234.638V235.926H430.012ZM433.282 233.028H434.29V234.274L435.536 233.028H437.342V233.952H435.802L434.318 235.436V240H433.282V233.028ZM438.739 235.982H442.827V236.906H438.739V235.982ZM444.652 238.712V237.62H445.716V238.362L446.416 239.048H449.384L450.084 238.362V236.22L449.412 235.548H446.612V234.596H449.412L450.084 233.924V231.838L449.384 231.152H446.5L445.8 231.838V232.58H444.736V231.488L446.024 230.2H449.86L451.148 231.488V234.232L450.294 235.072L451.148 235.926V238.712L449.86 240H445.94L444.652 238.712Z" fill="#F74480"/>
<path d="M315 121L345.316 61H347" stroke="#F74480"/>
<path d="M347 61L371 61" stroke="#F74480"/>
<circle opacity="0.2" cx="315" cy="121" r="6" fill="#F74480"/>
<circle cx="315" cy="121" r="3" fill="#F74480"/>
<path d="M386.742 63.786V66.684L385.426 68H383.9V69.54H382.92V68H381.198L379.91 66.712V65.816H380.96V66.362L381.632 67.048H382.92V63.45H381.226L379.938 62.162V59.488L381.226 58.2H382.92V56.66H383.9V58.2H385.342L386.63 59.488V60.398H385.594V59.838L384.894 59.152H383.9V62.498H385.454L386.742 63.786ZM382.92 62.498V59.152H381.688L380.988 59.838V61.812L381.688 62.498H382.92ZM385.692 64.136L384.992 63.45H383.9V67.048H384.992L385.692 66.334V64.136ZM395.006 61.028V69.778L393.732 71.052H390.274L389.196 69.974V69.12H390.232V69.638L390.722 70.128H393.27L393.97 69.442V66.838L392.682 68H390.134L388.846 66.712V62.316L390.134 61.028H392.78L393.998 62.246V61.028H395.006ZM393.97 63.422L392.5 61.952H390.582L389.882 62.638V66.39L390.582 67.076H392.514L393.97 65.718V63.422ZM397.317 66.712V62.316L398.605 61.028H402.119L403.421 62.316V64.822H398.353V66.39L399.053 67.076H401.671L402.371 66.39V65.858H403.407V66.712L402.119 68H398.605L397.317 66.712ZM402.385 63.926V62.638L401.685 61.952H399.053L398.353 62.638V63.926H402.385ZM405.725 58.004H406.761V68H405.725V58.004ZM409.006 63.982H413.094V64.906H409.006V63.982ZM415.129 66.712V62.316L416.417 61.028H419.777L421.065 62.316V63.17H420.029V62.638L419.329 61.952H416.865L416.165 62.638V66.39L416.865 67.076H419.329L420.029 66.39V65.858H421.065V66.712L419.777 68H416.417L415.129 66.712ZM422.957 66.712V62.316L424.245 61.028H427.829L429.117 62.316V66.712L427.829 68H424.245L422.957 66.712ZM427.381 67.076L428.081 66.39V62.638L427.381 61.952H424.693L423.993 62.638V66.39L424.693 67.076H427.381ZM431.502 58.004H432.538V68H431.502V58.004ZM434.923 66.712V62.316L436.211 61.028H439.795L441.083 62.316V66.712L439.795 68H436.211L434.923 66.712ZM439.347 67.076L440.047 66.39V62.638L439.347 61.952H436.659L435.959 62.638V66.39L436.659 67.076H439.347ZM443.397 61.028H444.405V62.274L445.651 61.028H447.457V61.952H445.917L444.433 63.436V68H443.397V61.028ZM448.854 63.982H452.942V64.906H448.854V63.982ZM455.117 61.028H456.125V62.274L457.371 61.028H459.989L461.277 62.316V66.712L459.989 68H457.301L456.153 66.992V70.968H455.117V61.028ZM459.541 67.076L460.241 66.39V62.638L459.541 61.952H457.651L456.153 63.45V65.858L457.497 67.076H459.541ZM463.588 61.028H464.596V62.274L465.842 61.028H467.648V61.952H466.108L464.624 63.436V68H463.588V61.028ZM469.255 59.432V58.816L469.675 58.396H470.291L470.711 58.816V59.432L470.291 59.852H469.675L469.255 59.432ZM469.465 61.028H470.501V68H469.465V61.028ZM473.093 61.028H474.101V62.372L475.445 61.028H477.111L478.203 62.12L479.295 61.028H481.493L482.781 62.316V68H481.745V62.638L481.045 61.952H479.505L478.525 62.932V68H477.517V62.638L476.817 61.952H475.641L474.129 63.464V68H473.093V61.028ZM484.949 66.852V65.074L486.097 63.94H489.821V62.61L489.121 61.924H486.741L486.041 62.61V63.184H485.005V62.316L486.293 61.028H489.555L490.843 62.316V68H489.849V66.768L488.561 68H486.097L484.949 66.852ZM488.351 67.104L489.821 65.69V64.836H486.545L485.985 65.382V66.558L486.545 67.104H488.351ZM493.22 61.028H494.228V62.274L495.474 61.028H497.28V61.952H495.74L494.256 63.436V68H493.22V61.028ZM504.823 61.028V69.778L503.535 71.052H500.175L499.097 69.974V69.12H500.133V69.652L500.623 70.128H503.087L503.787 69.442V66.516L502.303 68H500.175L498.887 66.712V61.028H499.923V66.39L500.623 67.076H502.023L503.787 65.312V61.028H504.823ZM506.998 63.982H511.086V64.906H506.998V63.982ZM513.051 66.712V65.62H514.115V66.362L514.815 67.048H517.755L518.455 66.362V63.562L517.755 62.876H513.191V58.2H519.323V59.138H514.227V61.924H518.217L519.519 63.226V66.712L518.231 68H514.339L513.051 66.712ZM521.689 66.6V59.6L523.089 58.2H527.121L528.521 59.6V66.6L527.121 68H523.089L521.689 66.6ZM526.645 67.048L527.457 66.25V59.95L526.645 59.152H523.565L522.753 59.95V66.25L523.565 67.048H526.645ZM530.83 66.6V59.6L532.23 58.2H536.262L537.662 59.6V66.6L536.262 68H532.23L530.83 66.6ZM535.786 67.048L536.598 66.25V59.95L535.786 59.152H532.706L531.894 59.95V66.25L532.706 67.048H535.786Z" fill="#F74480"/>
<path d="M213 114L182.684 86H181" stroke="#F74480"/>
<path d="M181 86L156 86" stroke="#F74480"/>
<circle opacity="0.2" r="6" transform="matrix(-1 0 0 1 213 114)" fill="#F74480"/>
<circle r="3" transform="matrix(-1 0 0 1 213 114)" fill="#F74480"/>
<path d="M52.8639 88.786V91.684L51.5479 93H50.0219V94.54H49.0419V93H47.3199L46.0319 91.712V90.816H47.0819V91.362L47.7539 92.048H49.0419V88.45H47.3479L46.0599 87.162V84.488L47.3479 83.2H49.0419V81.66H50.0219V83.2H51.4639L52.7519 84.488V85.398H51.7159V84.838L51.0159 84.152H50.0219V87.498H51.5759L52.8639 88.786ZM49.0419 87.498V84.152H47.8099L47.1099 84.838V86.812L47.8099 87.498H49.0419ZM51.8139 89.136L51.1139 88.45H50.0219V92.048H51.1139L51.8139 91.334V89.136ZM61.1278 86.028V94.778L59.8538 96.052H56.3958L55.3178 94.974V94.12H56.3538V94.638L56.8438 95.128H59.3918L60.0918 94.442V91.838L58.8038 93H56.2558L54.9678 91.712V87.316L56.2558 86.028H58.9018L60.1198 87.246V86.028H61.1278ZM60.0918 88.422L58.6218 86.952H56.7038L56.0038 87.638V91.39L56.7038 92.076H58.6358L60.0918 90.718V88.422ZM63.4389 91.712V87.316L64.7269 86.028H68.2409L69.5429 87.316V89.822H64.4749V91.39L65.1749 92.076H67.7929L68.4929 91.39V90.858H69.5289V91.712L68.2409 93H64.7269L63.4389 91.712ZM68.5069 88.926V87.638L67.8069 86.952H65.1749L64.4749 87.638V88.926H68.5069ZM71.8466 83.004H72.8826V93H71.8466V83.004ZM75.1278 88.982H79.2158V89.906H75.1278V88.982ZM81.3906 86.028H82.3986V87.274L83.6446 86.028H85.4506V86.952H83.9106L82.4266 88.436V93H81.3906V86.028ZM86.5619 91.852V90.074L87.7099 88.94H91.4339V87.61L90.7339 86.924H88.3539L87.6539 87.61V88.184H86.6179V87.316L87.9059 86.028H91.1679L92.4559 87.316V93H91.4619V91.768L90.1739 93H87.7099L86.5619 91.852ZM89.9639 92.104L91.4339 90.69V89.836H88.1579L87.5979 90.382V91.558L88.1579 92.104H89.9639ZM94.6928 91.712V87.316L95.9808 86.028H98.6688L99.8168 87.036V83.004H100.853V93H99.8448V91.726L98.5708 93H95.9808L94.6928 91.712ZM98.3468 92.076L99.8168 90.606V88.128L98.4728 86.952H96.4288L95.7288 87.638V91.39L96.4288 92.076H98.3468ZM103.234 84.432V83.816L103.654 83.396H104.27L104.69 83.816V84.432L104.27 84.852H103.654L103.234 84.432ZM103.444 86.028H104.48V93H103.444V86.028ZM107.002 91.712V86.028H108.038V91.39L108.738 92.076H110.138L111.874 90.34V86.028H112.91V93H111.902V91.516L110.418 93H108.29L107.002 91.712ZM115.015 91.852V90.984H116.051V91.558L116.611 92.104H119.187L119.747 91.558V90.48L119.187 89.92H116.177L115.071 88.814V87.176L116.219 86.028H119.495L120.643 87.176V88.044H119.607V87.47L119.047 86.924H116.667L116.107 87.47V88.492L116.667 89.052H119.635L120.783 90.2V91.852L119.635 93H116.163L115.015 91.852ZM122.599 88.982H126.687V89.906H122.599V88.982ZM128.862 86.028H129.87V87.372L131.214 86.028H132.88L133.972 87.12L135.064 86.028H137.262L138.55 87.316V93H137.514V87.638L136.814 86.952H135.274L134.294 87.932V93H133.286V87.638L132.586 86.952H131.41L129.898 88.464V93H128.862V86.028ZM140.789 91.712V87.316L142.077 86.028H144.765L145.913 87.036V83.004H146.949V93H145.941V91.726L144.667 93H142.077L140.789 91.712ZM144.443 92.076L145.913 90.606V88.128L144.569 86.952H142.525L141.825 87.638V91.39L142.525 92.076H144.443Z" fill="#F74480"/>
<path d="M306 159L275.684 205H274" stroke="#F74480"/>
<path d="M274 205L232 205" stroke="#F74480"/>
<circle opacity="0.2" cx="306" cy="159" r="6" transform="rotate(-180 306 159)" fill="#F74480"/>
<circle cx="306" cy="159" r="3" transform="rotate(-180 306 159)" fill="#F74480"/>
<path d="M76.476 207.786V210.684L75.16 212H73.634V213.54H72.654V212H70.932L69.644 210.712V209.816H70.694V210.362L71.366 211.048H72.654V207.45H70.96L69.672 206.162V203.488L70.96 202.2H72.654V200.66H73.634V202.2H75.076L76.364 203.488V204.398H75.328V203.838L74.628 203.152H73.634V206.498H75.188L76.476 207.786ZM72.654 206.498V203.152H71.422L70.722 203.838V205.812L71.422 206.498H72.654ZM75.426 208.136L74.726 207.45H73.634V211.048H74.726L75.426 210.334V208.136ZM84.7399 205.028V213.778L83.4659 215.052H80.0079L78.9299 213.974V213.12H79.9659V213.638L80.4559 214.128H83.0039L83.7039 213.442V210.838L82.4159 212H79.8679L78.5799 210.712V206.316L79.8679 205.028H82.5139L83.7319 206.246V205.028H84.7399ZM83.7039 207.422L82.2339 205.952H80.3159L79.6159 206.638V210.39L80.3159 211.076H82.2479L83.7039 209.718V207.422ZM87.051 210.712V206.316L88.339 205.028H91.853L93.155 206.316V208.822H88.087V210.39L88.787 211.076H91.405L92.105 210.39V209.858H93.141V210.712L91.853 212H88.339L87.051 210.712ZM92.119 207.926V206.638L91.419 205.952H88.787L88.087 206.638V207.926H92.119ZM95.4587 202.004H96.4947V212H95.4587V202.004ZM98.7399 207.982H102.828V208.906H98.7399V207.982ZM105.633 205.938H104.373V205.028H105.633V203.474L106.851 202.256H108.867V203.152H107.299L106.669 203.768V205.028H108.867V205.938H106.669V212H105.633V205.938ZM110.203 210.712V206.316L111.491 205.028H115.075L116.363 206.316V210.712L115.075 212H111.491L110.203 210.712ZM114.627 211.076L115.327 210.39V206.638L114.627 205.952H111.939L111.239 206.638V210.39L111.939 211.076H114.627ZM118.677 205.028H119.685V206.512L121.169 205.028H123.311L124.599 206.316V212H123.563V206.638L122.863 205.952H121.449L119.713 207.688V212H118.677V205.028ZM127.478 210.712V205.938H126.218V205.028H127.506V202.76H128.514V205.028H130.698V205.938H128.514V210.39L129.214 211.09H130.698V212H128.766L127.478 210.712ZM132.168 207.982H136.256V208.906H132.168V207.982ZM139.06 205.938H137.8V205.028H139.06V203.474L140.278 202.256H142.294V203.152H140.726L140.096 203.768V205.028H142.294V205.938H140.096V212H139.06V205.938ZM143.479 210.852V209.074L144.627 207.94H148.351V206.61L147.651 205.924H145.271L144.571 206.61V207.184H143.535V206.316L144.823 205.028H148.085L149.373 206.316V212H148.379V210.768L147.091 212H144.627L143.479 210.852ZM146.881 211.104L148.351 209.69V208.836H145.075L144.515 209.382V210.558L145.075 211.104H146.881ZM151.75 205.028H152.758V206.372L154.102 205.028H155.768L156.86 206.12L157.952 205.028H160.15L161.438 206.316V212H160.402V206.638L159.702 205.952H158.162L157.182 206.932V212H156.174V206.638L155.474 205.952H154.298L152.786 207.464V212H151.75V205.028ZM163.746 203.432V202.816L164.166 202.396H164.782L165.202 202.816V203.432L164.782 203.852H164.166L163.746 203.432ZM163.956 205.028H164.992V212H163.956V205.028ZM167.654 202.004H168.69V212H167.654V202.004ZM177.082 205.028V213.778L175.794 215.052H172.434L171.356 213.974V213.12H172.392V213.652L172.882 214.128H175.346L176.046 213.442V210.516L174.562 212H172.434L171.146 210.712V205.028H172.182V210.39L172.882 211.076H174.282L176.046 209.312V205.028H177.082ZM179.256 207.982H183.344V208.906H179.256V207.982ZM185.519 202.004H186.555V206.484L188.011 205.028H190.181L191.469 206.316V212H190.433V206.638L189.733 205.952H188.291L186.555 207.688V212H185.519V202.004ZM193.714 210.712V206.316L195.002 205.028H198.516L199.818 206.316V208.822H194.75V210.39L195.45 211.076H198.068L198.768 210.39V209.858H199.804V210.712L198.516 212H195.002L193.714 210.712ZM198.782 207.926V206.638L198.082 205.952H195.45L194.75 206.638V207.926H198.782ZM201.841 210.852V209.074L202.989 207.94H206.713V206.61L206.013 205.924H203.633L202.933 206.61V207.184H201.897V206.316L203.185 205.028H206.447L207.735 206.316V212H206.741V210.768L205.453 212H202.989L201.841 210.852ZM205.243 211.104L206.713 209.69V208.836H203.437L202.877 209.382V210.558L203.437 211.104H205.243ZM209.135 205.028H210.199L212.271 210.964H212.327L214.399 205.028H215.463L212.901 212H211.697L209.135 205.028ZM222.945 205.028V213.778L221.657 215.052H218.297L217.219 213.974V213.12H218.255V213.652L218.745 214.128H221.209L221.909 213.442V210.516L220.425 212H218.297L217.009 210.712V205.028H218.045V210.39L218.745 211.076H220.145L221.909 209.312V205.028H222.945ZM86.6752 227.786V230.684L85.3592 232H83.8332V233.54H82.8532V232H81.1312L79.8432 230.712V229.816H80.8932V230.362L81.5652 231.048H82.8532V227.45H81.1592L79.8712 226.162V223.488L81.1592 222.2H82.8532V220.66H83.8332V222.2H85.2752L86.5632 223.488V224.398H85.5272V223.838L84.8272 223.152H83.8332V226.498H85.3872L86.6752 227.786ZM82.8532 226.498V223.152H81.6212L80.9212 223.838V225.812L81.6212 226.498H82.8532ZM85.6252 228.136L84.9252 227.45H83.8332V231.048H84.9252L85.6252 230.334V228.136ZM94.9391 225.028V233.778L93.6651 235.052H90.2071L89.1291 233.974V233.12H90.1651V233.638L90.6551 234.128H93.2031L93.9031 233.442V230.838L92.6151 232H90.0671L88.7791 230.712V226.316L90.0671 225.028H92.7131L93.9311 226.246V225.028H94.9391ZM93.9031 227.422L92.4331 225.952H90.5151L89.8151 226.638V230.39L90.5151 231.076H92.4471L93.9031 229.718V227.422ZM97.2502 230.712V226.316L98.5382 225.028H102.052L103.354 226.316V228.822H98.2862V230.39L98.9862 231.076H101.604L102.304 230.39V229.858H103.34V230.712L102.052 232H98.5382L97.2502 230.712ZM102.318 227.926V226.638L101.618 225.952H98.9862L98.2862 226.638V227.926H102.318ZM105.658 222.004H106.694V232H105.658V222.004ZM108.939 227.982H113.027V228.906H108.939V227.982ZM115.832 225.938H114.572V225.028H115.832V223.474L117.05 222.256H119.066V223.152H117.498L116.868 223.768V225.028H119.066V225.938H116.868V232H115.832V225.938ZM120.402 230.712V226.316L121.69 225.028H125.274L126.562 226.316V230.712L125.274 232H121.69L120.402 230.712ZM124.826 231.076L125.526 230.39V226.638L124.826 225.952H122.138L121.438 226.638V230.39L122.138 231.076H124.826ZM128.877 225.028H129.885V226.512L131.369 225.028H133.511L134.799 226.316V232H133.763V226.638L133.063 225.952H131.649L129.913 227.688V232H128.877V225.028ZM137.677 230.712V225.938H136.417V225.028H137.705V222.76H138.713V225.028H140.897V225.938H138.713V230.39L139.413 231.09H140.897V232H138.965L137.677 230.712ZM142.367 227.982H146.455V228.906H142.367V227.982ZM148.28 230.852V229.984H149.316V230.558L149.876 231.104H152.452L153.012 230.558V229.48L152.452 228.92H149.442L148.336 227.814V226.176L149.484 225.028H152.76L153.908 226.176V227.044H152.872V226.47L152.312 225.924H149.932L149.372 226.47V227.492L149.932 228.052H152.9L154.048 229.2V230.852L152.9 232H149.428L148.28 230.852ZM156.074 223.432V222.816L156.494 222.396H157.11L157.53 222.816V223.432L157.11 223.852H156.494L156.074 223.432ZM156.284 225.028H157.32V232H156.284V225.028ZM159.422 231.034L163.748 225.924V225.896H159.562V225.028H164.938V225.994L160.612 231.104V231.132H164.938V232H159.422V231.034ZM166.684 230.712V226.316L167.972 225.028H171.486L172.788 226.316V228.822H167.72V230.39L168.42 231.076H171.038L171.738 230.39V229.858H172.774V230.712L171.486 232H167.972L166.684 230.712ZM171.752 227.926V226.638L171.052 225.952H168.42L167.72 226.638V227.926H171.752ZM174.742 227.982H178.83V228.906H174.742V227.982ZM181.635 230.712V225.938H180.375V225.028H181.663V222.76H182.671V225.028H184.855V225.938H182.671V230.39L183.371 231.09H184.855V232H182.923L181.635 230.712ZM186.465 230.712V226.316L187.753 225.028H191.267L192.569 226.316V228.822H187.501V230.39L188.201 231.076H190.819L191.519 230.39V229.858H192.555V230.712L191.267 232H187.753L186.465 230.712ZM191.533 227.926V226.638L190.833 225.952H188.201L187.501 226.638V227.926H191.533ZM198.937 232L196.963 229.256L194.989 232H193.827L196.389 228.458L193.897 225.028H195.059L196.963 227.674L198.867 225.028H200.029L197.551 228.486L200.099 232H198.937ZM202.345 230.712V225.938H201.085V225.028H202.373V222.76H203.381V225.028H205.565V225.938H203.381V230.39L204.081 231.09H205.565V232H203.633L202.345 230.712ZM207.035 227.982H211.123V228.906H207.035V227.982ZM213.368 222.004H214.404V232H213.368V222.004ZM222.949 225.028V233.778L221.675 235.052H218.217L217.139 233.974V233.12H218.175V233.638L218.665 234.128H221.213L221.913 233.442V230.838L220.625 232H218.077L216.789 230.712V226.316L218.077 225.028H220.723L221.941 226.246V225.028H222.949ZM221.913 227.422L220.443 225.952H218.525L217.825 226.638V230.39L218.525 231.076H220.457L221.913 229.718V227.422ZM63.6682 247.786V250.684L62.3522 252H60.8262V253.54H59.8462V252H58.1242L56.8362 250.712V249.816H57.8862V250.362L58.5582 251.048H59.8462V247.45H58.1522L56.8642 246.162V243.488L58.1522 242.2H59.8462V240.66H60.8262V242.2H62.2682L63.5562 243.488V244.398H62.5202V243.838L61.8202 243.152H60.8262V246.498H62.3802L63.6682 247.786ZM59.8462 246.498V243.152H58.6142L57.9142 243.838V245.812L58.6142 246.498H59.8462ZM62.6182 248.136L61.9182 247.45H60.8262V251.048H61.9182L62.6182 250.334V248.136ZM71.9321 245.028V253.778L70.6581 255.052H67.2001L66.1221 253.974V253.12H67.1581V253.638L67.6481 254.128H70.1961L70.8961 253.442V250.838L69.6081 252H67.0601L65.7721 250.712V246.316L67.0601 245.028H69.7061L70.9241 246.246V245.028H71.9321ZM70.8961 247.422L69.4261 245.952H67.5081L66.8081 246.638V250.39L67.5081 251.076H69.4401L70.8961 249.718V247.422ZM74.2432 250.712V246.316L75.5312 245.028H79.0452L80.3472 246.316V248.822H75.2792V250.39L75.9792 251.076H78.5972L79.2972 250.39V249.858H80.3332V250.712L79.0452 252H75.5312L74.2432 250.712ZM79.3112 247.926V246.638L78.6112 245.952H75.9792L75.2792 246.638V247.926H79.3112ZM82.6509 242.004H83.6869V252H82.6509V242.004ZM85.9321 247.982H90.0201V248.906H85.9321V247.982ZM92.0549 250.712V246.316L93.3429 245.028H96.7029L97.9909 246.316V247.17H96.9549V246.638L96.2549 245.952H93.7909L93.0909 246.638V250.39L93.7909 251.076H96.2549L96.9549 250.39V249.858H97.9909V250.712L96.7029 252H93.3429L92.0549 250.712ZM99.8834 250.712V246.316L101.171 245.028H104.755L106.043 246.316V250.712L104.755 252H101.171L99.8834 250.712ZM104.307 251.076L105.007 250.39V246.638L104.307 245.952H101.619L100.919 246.638V250.39L101.619 251.076H104.307ZM108.428 242.004H109.464V252H108.428V242.004ZM111.849 250.712V246.316L113.137 245.028H116.721L118.009 246.316V250.712L116.721 252H113.137L111.849 250.712ZM116.273 251.076L116.973 250.39V246.638L116.273 245.952H113.585L112.885 246.638V250.39L113.585 251.076H116.273ZM120.323 245.028H121.331V246.274L122.577 245.028H124.383V245.952H122.843L121.359 247.436V252H120.323V245.028ZM125.78 247.982H129.868V248.906H125.78V247.982ZM132.673 250.712V245.938H131.413V245.028H132.701V242.76H133.709V245.028H135.893V245.938H133.709V250.39L134.409 251.09H135.893V252H133.961L132.673 250.712ZM137.503 250.712V246.316L138.791 245.028H142.305L143.607 246.316V248.822H138.539V250.39L139.239 251.076H141.857L142.557 250.39V249.858H143.593V250.712L142.305 252H138.791L137.503 250.712ZM142.571 247.926V246.638L141.871 245.952H139.239L138.539 246.638V247.926H142.571ZM145.841 245.028H146.849V246.274L148.095 245.028H149.901V245.952H148.361L146.877 247.436V252H145.841V245.028ZM152.207 250.712V245.938H150.947V245.028H152.235V242.76H153.243V245.028H155.427V245.938H153.243V250.39L153.943 251.09H155.427V252H153.495L152.207 250.712ZM157.312 243.432V242.816L157.732 242.396H158.348L158.768 242.816V243.432L158.348 243.852H157.732L157.312 243.432ZM157.522 245.028H158.558V252H157.522V245.028ZM160.94 250.852V249.074L162.088 247.94H165.812V246.61L165.112 245.924H162.732L162.032 246.61V247.184H160.996V246.316L162.284 245.028H165.546L166.834 246.316V252H165.84V250.768L164.552 252H162.088L160.94 250.852ZM164.342 251.104L165.812 249.69V248.836H162.536L161.976 249.382V250.558L162.536 251.104H164.342ZM169.211 245.028H170.219V246.274L171.465 245.028H173.271V245.952H171.731L170.247 247.436V252H169.211V245.028ZM180.814 245.028V253.778L179.526 255.052H176.166L175.088 253.974V253.12H176.124V253.652L176.614 254.128H179.078L179.778 253.442V250.516L178.294 252H176.166L174.878 250.712V245.028H175.914V250.39L176.614 251.076H178.014L179.778 249.312V245.028H180.814ZM182.989 247.982H187.077V248.906H182.989V247.982ZM188.692 245.028H189.756L190.946 250.824H190.988L192.668 245.028H193.676L195.202 250.824H195.244L196.546 245.028H197.61L195.846 252H194.726L193.186 246.246H193.144L191.464 252H190.33L188.692 245.028ZM199.5 242.004H200.536V246.484L201.992 245.028H204.162L205.45 246.316V252H204.414V246.638L203.714 245.952H202.272L200.536 247.688V252H199.5V242.004ZM207.764 243.432V242.816L208.184 242.396H208.8L209.22 242.816V243.432L208.8 243.852H208.184L207.764 243.432ZM207.974 245.028H209.01V252H207.974V245.028ZM212.232 250.712V245.938H210.972V245.028H212.26V242.76H213.268V245.028H215.452V245.938H213.268V250.39L213.968 251.09H215.452V252H213.52L212.232 250.712ZM217.062 250.712V246.316L218.35 245.028H221.864L223.166 246.316V248.822H218.098V250.39L218.798 251.076H221.416L222.116 250.39V249.858H223.152V250.712L221.864 252H218.35L217.062 250.712ZM222.13 247.926V246.638L221.43 245.952H218.798L218.098 246.638V247.926H222.13Z" fill="#F74480"/>
<defs>
<clipPath id="clip0_549_43235">
<rect width="48" height="18" fill="white" transform="translate(463 127) rotate(180)"/>
</clipPath>
<clipPath id="clip1_549_43235">
<rect width="48" height="35" fill="white" transform="translate(387 217) rotate(-90)"/>
</clipPath>
</defs>
</svg>
